<?xml version="1.0" encoding="utf-8"?>
<!-- Generator: Adobe Illustrator 24.0.1, SVG Export Plug-In . SVG Version: 6.00 Build 0)  -->
<svg version="1.1" id="Layer_1" xmlns="http://www.w3.org/2000/svg" xmlns:xlink="http://www.w3.org/1999/xlink" x="0px" y="0px"
	 viewBox="0 0 40 40" style="enable-background:new 0 0 40 40;" xml:space="preserve">
<style type="text/css">
	.st0{fill:#AF69CD;}
</style>
<path class="st0" d="M28.5,1.4h-17c-5.5,0-10,4.5-10,10v17c0,5.5,4.5,10,10,10h17c5.5,0,10-4.5,10-10v-17
	C38.6,5.9,34.1,1.4,28.5,1.4z M20,30.1c-5.6,0-10.1-4.6-10.1-10.1S14.4,9.9,20,9.9S30.1,14.4,30.1,20S25.6,30.1,20,30.1z M30.4,12.2
	c-1.7,0-3-1.3-3-3s1.3-3,3-3c1.7,0,3,1.3,3,3S32,12.2,30.4,12.2z"/>
<path class="st0" d="M20,12c-4.4,0-8,3.6-8,8c0,4.4,3.6,8,8,8c4.4,0,8-3.6,8-8C28,15.6,24.4,12,20,12z"/>
<path class="st0" d="M30.4,8.4c-0.5,0-0.8,0.4-0.8,0.8s0.4,0.8,0.8,0.8c0.5,0,0.8-0.4,0.8-0.8S30.8,8.4,30.4,8.4z"/>
</svg>
