<?xml version="1.0" encoding="utf-8"?>
<!-- Generator: Adobe Illustrator 24.0.1, SVG Export Plug-In . SVG Version: 6.00 Build 0)  -->
<svg version="1.1" id="Layer_1" xmlns="http://www.w3.org/2000/svg" xmlns:xlink="http://www.w3.org/1999/xlink" x="0px" y="0px"
	 viewBox="0 0 115.3 80.5" style="enable-background:new 0 0 115.3 80.5;" xml:space="preserve">
<style type="text/css">
	.st0{fill:#FFFFFF;}
</style>
<g>
	<path class="st0" d="M49.8,14.4l0.2,0.3c0,0,3.4-0.3,5.9-0.3c2.8,0,5.9,0.3,5.9,0.3l0.2-0.3c0,0-3.5-0.3-6.1-0.3
		C53.4,14.1,49.8,14.4,49.8,14.4z"/>
	<path class="st0" d="M59.7,11.5c-0.3,0-0.5,0.2-0.5,0.5l-0.1,0.9l1,0.1l0.1-0.9C60.2,11.8,60,11.5,59.7,11.5z"/>
	<path class="st0" d="M52.6,12c0-0.3-0.3-0.5-0.5-0.5c-0.3,0-0.5,0.3-0.5,0.5l0.1,0.9l1-0.1L52.6,12z"/>
	<path class="st0" d="M56.5,11c0-0.3-0.2-0.5-0.5-0.5s-0.5,0.2-0.5,0.5v2.6h1.1L56.5,11L56.5,11z"/>
	<path class="st0" d="M63.4,12.1c-0.3-0.1-0.5,0.1-0.6,0.3L62.6,13l0.9,0.3l0.2-0.6C63.8,12.4,63.6,12.1,63.4,12.1z"/>
	<path class="st0" d="M48.5,12.1c-0.3,0.1-0.4,0.4-0.3,0.6l0.2,0.6l0.9-0.3l-0.2-0.6C49,12.1,48.7,12,48.5,12.1z"/>
	<path class="st0" d="M47.5,10.9c0,0,4.7-1.3,8.9-1.3c3.9,0,8,1.3,8,1.3l-0.1-0.4c0,0-2.8-1.2-7.9-1.2c-5.1-0.1-8.9,1.3-8.9,1.3
		V10.9z"/>
	<path class="st0" d="M52.2,9.2l-0.1-1c0-0.2-0.2-0.4-0.4-0.3c-0.2,0-0.4,0.2-0.3,0.4l0.1,1L52.2,9.2z"/>
	<path class="st0" d="M64.1,9c0.1-0.2,0-0.3-0.2-0.4c-0.2-0.1-0.3,0-0.4,0.2l-0.2,0.8l0.6,0.2L64.1,9z"/>
	<path class="st0" d="M47.7,9l0.2,0.8l0.6-0.2l-0.2-0.8c-0.1-0.2-0.2-0.3-0.4-0.2C47.7,8.6,47.6,8.8,47.7,9z"/>
	<path class="st0" d="M60.4,8.3c0-0.2-0.1-0.4-0.3-0.4S59.7,8,59.7,8.2l-0.1,1l0.7,0.1L60.4,8.3z"/>
	<path class="st0" d="M56.3,8c0-0.2-0.2-0.4-0.4-0.4S55.5,7.8,55.5,8v1h0.7V8H56.3z"/>
	<path class="st0" d="M63.2,23.1c0,0.2,0,0.3,0,0.5c0.3,0.1,0.6,0.1,0.9,0.1c0.2,0,0.3,0,0.5,0c0.1,0,0.4,0,0.4-0.1s-0.1-0.1,0-0.2
		h0.1v-0.1c0-0.1,0.2-0.3,0.3-0.4c-0.2,0-0.4,0-0.5,0.1c-0.2,0.1-0.1,0-0.3,0c0,0,0,0-0.2-0.1c-0.1-0.1-0.1-0.1-0.2-0.2
		c0,0,0,0-0.1-0.1c-0.1,0-0.1,0.1-0.2,0.2c-0.1,0.1-0.2,0.3-0.3,0.3s-0.2-0.2-0.3-0.3c-0.1-0.1-0.3-0.1-0.4-0.1
		C63,22.8,63.1,22.8,63.2,23.1z"/>
	<path class="st0" d="M65.4,6.1c0-0.1,0-0.1-0.1-0.1c-0.1,0-0.1,0-0.1,0.1L65,6.8l0.2,0.1L65.4,6.1z"/>
	<path class="st0" d="M64.3,5.8c0-0.1,0-0.1-0.1-0.1c-0.1,0-0.1,0-0.1,0.1l-0.2,0.7h0.2L64.3,5.8z"/>
	<path class="st0" d="M61.3,4.8C61.3,4.7,61.3,4.7,61.3,4.8c-0.2-0.1-0.2-0.1-0.2,0L61,5.7h0.3L61.3,4.8z"/>
	<path class="st0" d="M50.9,5.6l-0.1-0.9c0-0.1-0.1-0.1-0.1-0.1c-0.1,0-0.1,0.1-0.1,0.1l0.1,0.9H50.9z"/>
	<path class="st0" d="M47.9,6.4l-0.2-0.7c0-0.1-0.1-0.1-0.1-0.1l-0.1,0.1l0.2,0.7H47.9z"/>
	<path class="st0" d="M52.2,5.5l-0.1-0.9c0-0.1-0.1-0.1-0.1-0.1c-0.1,0-0.1,0.1-0.1,0.1L52,5.5L52.2,5.5z"/>
	<path class="st0" d="M55.4,4.4c0-0.1-0.1-0.1-0.2-0.1c0,0-0.1,0-0.1,0.1v0.9h0.3V4.4z"/>
	<path class="st0" d="M60,4.6C60,4.5,60,4.5,60,4.6c-0.2-0.1-0.2-0.1-0.2,0l-0.1,0.9H60L60,4.6z"/>
	<path class="st0" d="M56.7,4.4C56.7,4.3,56.7,4.3,56.7,4.4c-0.2-0.1-0.2,0-0.2,0v0.9h0.3V4.4H56.7z"/>
	<path class="st0" d="M46.5,6C46.4,6,46.4,6.1,46.5,6l0.1,0.8l0.2-0.1L46.6,6C46.6,6,46.5,6,46.5,6z"/>
	<path class="st0" d="M49.9,25.3L49.9,25.3C49.9,25.4,49.9,25.4,49.9,25.3C49.9,25.4,49.9,25.3,49.9,25.3z"/>
	<path class="st0" d="M47.2,22.9c-0.1,0-0.1,0.1-0.1,0.1s0,0.1,0.1,0.1l0,0l0,0l0,0l0,0c0,0,0,0,0.1,0l0,0c0,0,0,0,0-0.1
		s0-0.2,0-0.2C47.4,22.8,47.3,22.9,47.2,22.9z"/>
	<path class="st0" d="M75.7,72.6c-0.6-1.4-2.3-0.2-2.6,0.7c-0.3-0.2-0.7-0.3-1-0.5c0.2-0.7,0-1.4,0.2-2.3c0.3-0.8,0.9-1.2,0.7-1.9
		c-0.2-0.9-1.5-0.3-2-0.1c0.3-0.5,0.7-1.6,0.1-2.1h-1.2c-0.3,0.6-0.6,1.1-1,1.6c-0.6,0-1.1,0.7-1.8,0.8c-0.2,0-0.5,0-0.7,0
		c-0.6,0.1-1.1,0.4-1.5,0.4c-0.7,0-1.4-0.3-2.2-0.3c-1,0.1-1.9,0.7-3.2,0.6c-1.8-0.2-3.3-0.2-5.1,0c-1.4,0.1-2.2-0.5-3.2-0.6
		c-0.7,0-1.4,0.4-2.1,0.4c-0.5,0-1-0.4-1.5-0.4c-0.2,0-0.5,0-0.7,0c-0.7-0.2-1.2-0.8-1.8-0.8c-0.3-0.5-0.6-1.1-1-1.6H43
		c-0.5,0.5-0.3,1.6,0.1,2c-0.5-0.1-1.8-0.8-2,0.1c-0.2,0.7,0.4,1.2,0.7,1.9c0.3,0.8,0.1,1.5,0.2,2.3c-0.2,0.3-0.7,0.4-1,0.6
		c-0.3-0.9-2-2-2.6-0.6c-0.3-0.1-0.7-0.3-1-0.4c-0.2,0.1-0.1,0.6-0.2,0.8v0.6c0.1,0.8,0.9,0.9,1.2,1.4c-0.6,0.8,0,1.9,0.9,1.7
		c-0.2,0.8,0.2,1.4,0.8,1.6h1.3c0.9-0.1,1-1,2-0.7c0.4-0.2,0.6-0.5,0.9-0.8c0.4,0.4,0.9-0.1,1.1-0.4c1.5,0.2,2.9,0.8,4.4,1.1
		c0.8,0.2,1.3-0.3,2-0.3c0.4,0,0.8,0.4,1.2,0.4c1.3,0.3,2.7-0.1,4.1-0.1c1.2,0,2.3,0.3,3.3,0.2c0.7-0.1,1.3-0.5,2-0.6
		c0.7,0,1.3,0.4,2,0.3c1.5-0.4,2.8-1,4.3-1.1c0.1,0.4,0.7,0.7,1.1,0.4c0.2,0.3,0.5,0.6,0.8,0.8c1.1-0.3,1.1,0.6,2,0.7h1.3
		c0.6-0.2,1-0.8,0.8-1.6c1,0.3,1.4-0.9,0.9-1.7c0.4-0.5,1-0.7,1.2-1.4v-0.6c-0.1-0.2-0.1-0.5-0.1-0.8C76.3,72.3,76,72.5,75.7,72.6z
		 M38.8,75.9c-0.1-0.6,0.3-0.7,0.4-1.2c-0.4,0-0.4-0.5-0.7-0.7s-0.8-0.2-0.7-0.9c0.3,0,0.5,0.2,0.9,0.1c0.4-1.2,1.5-0.3,1.8,0.5
		c-0.3,0.7,0,1.4,0.1,2.1c0,0.3-0.2-0.2-0.4-0.1C39.7,75.8,39.2,76.1,38.8,75.9z M42,77.3c-0.4,0.3-1.5,0.4-2,0c0-0.5,0-1,0.3-1.1
		s0.2,0.3,0.2,0.5c0.8-0.6-0.2-1.8,0.1-2.6c0.6-0.3,1.4-0.4,1.7-1C42.3,74.2,42.9,76.6,42,77.3z M44.7,76c0,0.4-0.3-0.1-0.7,0.1
		c-0.5,0.1-0.4,0.9-1,0.8c-0.5-0.1-0.3-0.8-0.4-1.4c-0.1-1.6,0-3.9-0.4-5.3c-0.2-0.5-0.6-1-0.6-1.3v-0.1c0.8,0,1.5,0.6,2.2,0.9
		c0.8,1.3,0,3.7,0.4,5.4C44.4,75.5,44.9,75.5,44.7,76z M67.3,76c-0.8,0.2-1.6,0.4-2.3,0.6c-0.4,0.1-0.7,0.3-1.1,0.3
		c-0.6,0-1.2-0.3-1.8-0.2c-0.8,0.1-1.5,0.6-2.3,0.6c-0.4,0-0.7-0.2-1-0.2c-1.2-0.1-2.5-0.1-3.7,0c-0.3,0-0.6,0.2-1,0.2
		c-0.8,0-1.5-0.5-2.3-0.6c-0.6-0.1-1.2,0.3-1.8,0.2c-0.6,0-1.3-0.3-1.8-0.4c-0.6-0.2-1.3-0.4-1.9-0.5c-0.6-0.1-1.4-0.1-1.7-0.7
		c-0.2-1.9,0.1-4.5-0.6-6.2c-0.3-0.7-1-1.5-0.7-2c0-0.1,0.1-0.1,0.2-0.1c0.4,0.5,0.7,1.2,1.2,1.7c0.7,0,1.2,0.7,2,0.9
		c0.3,0.1,0.7,0,1,0.1c0.4,0.1,0.8,0.3,1.2,0.4c0.7,0.1,1.4-0.3,2.1-0.2c0.8,0.1,1.5,0.5,2.3,0.6c0.4,0,0.9,0,1.3,0
		c1.7-0.1,3.1-0.1,4.8,0c0.4,0,0.9,0,1.3,0c0.8,0,1.5-0.5,2.3-0.6c0.7-0.1,1.4,0.3,2.1,0.2c0.4,0,0.8-0.3,1.2-0.4
		c0.3-0.1,0.7,0,1-0.1c0.7-0.2,1.3-0.8,2-0.8c0.6-0.4,0.8-1.4,1.3-1.7c0.6,0.6-0.3,1.3-0.6,2c-0.7,1.7-0.4,4.2-0.6,6.2
		C69,75.8,68.1,75.8,67.3,76z M71,76.9c-0.6,0.1-0.6-0.7-1-0.8c-0.3-0.1-0.6,0.3-0.7,0c-0.2-0.6,0.4-0.5,0.5-1
		c0.4-1.6-0.5-4.4,0.4-5.4c0.5-0.6,1.4-0.4,2-0.9h0.1c0.2,0.5-0.3,0.8-0.6,1.4c-0.5,1.4-0.4,3.8-0.4,5.4C71.3,76,71.5,76.8,71,76.9z
		 M72.1,77.3c-1-0.7-0.3-3-0.4-4.3c0.3,0.6,1.1,0.7,1.7,1c0.3,0.9-0.6,2,0.1,2.6c0.2-0.1-0.1-0.6,0.2-0.5c0.5,0.2,0.4,0.7,0.4,1.2
		C73.6,77.8,72.4,77.6,72.1,77.3z M75.5,74c-0.3,0.2-0.4,0.7-0.7,0.6c0,0.5,0.5,0.6,0.4,1.3c-0.6,0.2-1.4-0.2-1.7,0.1
		c-0.1-0.3,0.1-0.6,0.2-1.1c0-0.4-0.2-0.7-0.1-1.1c0.1-1,1.5-1.9,1.7-0.6c0.4,0.1,0.6-0.1,0.9-0.1C76.3,73.7,75.9,73.8,75.5,74z"/>
	<path class="st0" d="M43.4,48.9c0,0.1,0,0.2,0.1,0.2c0,0,0.1,0,0.2-0.1c0.1,0,0.1,0,0.2-0.1c0.2-0.2,0.3-0.1,0.3,0.2
		c0,0.2,0.1,0.4-0.2,0.4c-0.1,0-0.1,0-0.2,0.1c-0.1,0.1-0.1,0.1-0.2,0.1c0,0,0,0,0,0.1s0.1,0.1,0.1,0.2c0.2,0.2,0.2,0.4,0.1,0.7l0,0
		c0,0.2-0.1,0.6-0.1,0.7c0,0,0.1,0,0.1-0.1c0,0.1-0.1,0.2-0.1,0.3s0,0.2,0,0.4c0,0.1-0.1,0.2-0.1,0.3l0,0c0,0.2-0.2,0.2-0.2,0.3h0.1
		c0,0.1-0.1,0.3,0,0.5c0.2-0.1,0-0.3,0.2-0.4c0.2-0.1,0.1,0.2,0.2,0.3c-0.1,0.1-0.1,0.2-0.2,0.3c0,0.1,0,0.2-0.1,0.2h-0.1
		c0,0-0.1,0.1-0.1,0.2c-0.1,0.1-0.1,0.1-0.2,0.2c-0.1,0.2-0.4,0.2-0.6,0.2c-0.2,0-0.4,0.2-0.3,0.4c0.1,0,0.2,0,0.3,0
		s0.1,0.1,0.2,0.1c0.1,0,0.4,0,0.5,0c0.2,0,0.3,0,0.5-0.1c0.1-0.1,0.2,0,0.4-0.1c0.1,0,0.2-0.1,0.3-0.2c0.1,0,0.1,0,0.2,0
		c0-0.1-0.1-0.1-0.1-0.1c0-0.1,0.1-0.1,0.2-0.1c0.1,0,0,0.2,0.1,0.1c0,0,0-0.2,0.1-0.1c0.1,0.1,0,0.2,0,0.3c0.1-0.1,0.1-0.2,0.2-0.3
		c0.3,0.2,0.2-0.1,0.3-0.3s0.4-0.1,0.6-0.2l0,0c-0.1,0-0.2-0.1-0.2-0.1c0.1,0,0.2,0,0.3,0s0.1-0.1,0.2-0.1c0.1,0,0.1,0.2,0.2,0.3
		c0.1,0.1,0.1,0,0.2-0.1c0-0.1,0.1-0.2,0.1-0.2c0.1-0.1,0-0.2,0-0.3s0.2-0.1,0.2-0.2c0.1-0.1,0.1-0.1,0.2-0.2
		c-0.2,0-0.3,0.2-0.4,0.2c0.1-0.1,0.2-0.3,0.3-0.4c-0.2,0.1-0.7,0.5-0.9,0.3c0-0.1,0.3-0.2,0.4-0.3c0.4-0.2,0.5-0.4,1.1-0.6
		c0.2-0.1,0.4-0.2,0.6-0.3c0.2-0.1,0.5-0.2,0.6-0.4c0.2-0.3,0.7-0.4,0.9,0c0.1,0.2,0.1,0.4,0,0.6c-0.1,0.1-0.3,0.4-0.2,0.6
		c0.1,0.1,0.3,0.1,0.4,0.1c0.1,0.1,0.2,0.1,0.3,0.3s0,0.6,0,0.8c0,0.3-0.1,0.5-0.1,0.8c0.1,0,0.1-0.1,0.2-0.2c0,0.2,0,0.4,0,0.6
		c0.1-0.1,0.1-0.2,0.1-0.3c0.1,0.1,0.1,0.3,0.2,0.4c0.1-0.1,0-0.5,0.1-0.6c0.3,0,0.4,0.1,0.7,0c0.5-0.2,0.9-0.9,1.1-1.3
		c0.3-0.4,0.3-0.6,0.5-1c0.1-0.2,0.3-0.5,0.5-0.6c0.4,0,0.1,0.3,0,0.5c-0.1,0.1-0.1,0.2-0.2,0.3c-0.1,0.1,0,0.3,0,0.4
		c0,0.1-0.1,0.2-0.1,0.3s0,0.1,0,0.3c0.1,0.3,0,0.3-0.1,0.6c0,0.2,0.1,0.4-0.3,0.7c-0.2,0.1-0.4,0.2-0.7,0.1c-0.1,0-0.2-0.1-0.3,0
		s0,0.2-0.4,0.3c-0.2,0.1,0.2,0.1,0.3,0.1s0,0.1,0,0.2c0.1,0.1,0,0.1,0.1,0.1s0.2-0.1,0.2-0.2c0.1,0,0.3,0,0.5,0
		c0.1,0,0.2-0.1,0.3-0.1s0.3,0.1,0.4,0.2c0.1,0,0.2-0.1,0.3-0.1s0.2,0.2,0.3,0.2c0-0.1,0-0.2,0-0.3c0.1,0,0.1,0,0.1,0.1
		c0.1-0.1,0-0.1,0.1-0.2c0.2,0,0,0.3,0.1,0.4c0.1-0.1,0.1-0.2,0.1-0.3c0,0.1,0.1,0.1,0.1,0.1c0-0.1,0-0.3,0-0.4
		c0.1-0.2,0.1-0.1,0.3-0.1c0-0.1,0-0.2-0.1-0.3c0-0.2,0-0.1,0.1-0.2c0.1-0.1,0-0.1-0.1,0c-0.1,0-0.2,0.1-0.3,0.1
		c0-0.1,0.1-0.1,0.1-0.1s0-0.1,0.1-0.2c0.1-0.1,0.2-0.1,0.2-0.3s-0.1-0.2,0-0.4c0-0.1,0.1-0.3,0-0.4c0-0.1,0.2-0.1,0.2-0.2h-0.1
		c0-0.1,0.1-0.1,0.2-0.2H55c0-0.1,0.1-0.1,0.1-0.2c0-0.1-0.1-0.1-0.1-0.3c0-0.1,0.2-0.2,0.3-0.3c-0.1,0.1-0.2,0.2-0.3,0.2
		c0.1-0.2,0.4-0.4,0.3-0.7c-0.2,0.2-0.2,0.6-0.8,0.2c-0.1-0.1,0-0.4-0.1-0.6c-0.1-0.3-0.4-0.2-0.9-0.2c-0.1,0-0.2,0.1-0.3,0.2
		c-0.2,0.1,0,0.2-0.6,0.7c-0.2,0.1-1,0.8-1.2,0.5c-0.1-0.1,0.1-0.5,0.2-0.6c0.1-0.3,0.1-0.4,0-0.6c0.1-0.1,0.3,0,0.4-0.1
		c0.1,0,0.3-0.1,0.4-0.1c0.1,0,0.2-0.1,0.4-0.1c0.1-0.1,0.2,0,0.4-0.1c0,0.2,0.3,0,0.4,0c0,0-0.3,0-0.2-0.2c0-0.1,0.2,0,0.3,0v-0.1
		c-0.2-0.1-0.3-0.2,0-0.3c0.2,0,0.3,0.1,0.5,0.1c0-0.1-0.1-0.1,0-0.2c-0.2,0-0.4-0.1-0.6-0.1c-0.1,0-0.2,0.1-0.3,0.1
		c-0.1-0.1,0-0.1-0.1-0.2c0-0.2-0.3-0.2-0.3-0.5c0-0.2,0.2-0.3,0.1-0.5c0,0.1-0.1,0.2-0.2,0.2c0-0.2,0.1-0.4,0-0.6
		c-0.1,0-0.1,0.1-0.2,0.1c-0.1-0.2-0.2-0.4-0.5-0.3c-0.1,0-0.2,0.1-0.2,0.2c0,0.1,0,0.1,0.2,0.1c0.1,0,0.2,0,0.2,0.2
		c0,0.1-0.1,0.2-0.1,0.3c0,0.2,0.1,0.2-0.2,0.2c-0.1,0-0.2-0.1-0.4-0.1c-0.1,0-0.3,0-0.3,0c-0.1-0.1,0-0.1-0.1-0.3
		C51,48.4,51,48.4,51,48.7c-0.2,0-0.1-0.2-0.2-0.4c-0.1,0-0.3,0.2-0.3,0c-0.1,0,0,0.2-0.2,0.2c-0.1,0-0.2,0-0.2-0.1H50
		c0-0.2,0.2-0.5-0.1-0.6c0,0.2,0,0.3-0.2,0.5c-0.2,0.1,0.2,0.4-0.4,0.4c-0.2,0-0.5,0.1-0.7,0.1s-0.3,0-0.6-0.1
		c-0.2-0.1-0.5-0.2-0.5-0.4h-0.1c0.1-0.2,0.1-0.7,0.4-0.4c0.2,0.2,0.3,0.3,0.6,0.4c0.3,0,0.4-0.1,0.7-0.1c0.1,0,0.3-0.2,0.4-0.2
		c0.1,0,0.2,0,0.3,0c0.2-0.1,0.3-0.3,0.2-0.5s-0.2-0.4-0.4-0.4c0.1,0.1,0.2,0.1,0.2,0.3c0,0.1,0,0.3-0.2,0.3
		c-0.2,0.1-0.5-0.2-0.6-0.4c-0.2-0.2-0.3-0.3-0.6-0.3c-0.1,0-0.3,0.1-0.3,0.2c-0.1,0.1-0.1,0.2-0.2,0.2c-0.2,0.1-0.3,0-0.4,0.2
		c-0.1,0.2-0.2,0.6-0.2,0.8c0.1,0.5,0.5,0.6,1,0.8c0.5,0.1,1,0.1,1.4,0c0.5,0,0.9-0.2,1.4-0.2c0.4,0,1,0,1.4,0.1
		c0.8,0.3,0.9,0.8,0.2,1c-0.2,0.1-0.5,0.1-0.7,0.1c-0.1,0-0.2-0.1-0.4-0.1c-0.1,0-0.2,0-0.4,0C51,50,50.8,50,50.6,49.9
		c-0.1,0-0.2-0.1-0.3-0.1s-0.2,0-0.3,0.1s-0.2,0.1-0.3,0.2c-0.1,0-0.2,0-0.4,0c-0.1,0-0.3,0-0.4,0c-0.1,0-0.3-0.2-0.3,0
		c-0.5,0.1-1.1,0.1-1.5-0.2c-0.1-0.1-0.1-0.1-0.2-0.2v-0.1h-0.1c0,0-0.1,0-0.1-0.1c0.2,0,0.2,0,0.2-0.2c0-0.1,0-0.2,0-0.3
		c-0.1,0-0.2,0.1-0.3,0c0-0.1,0.2-0.1,0.2-0.1c0-0.1-0.1-0.1,0-0.2c0.2-0.1,0-0.3,0-0.4c0-0.1-0.1-0.1,0-0.2c0-0.1,0.2,0,0.2-0.1
		s-0.1-0.1-0.2-0.1c-0.1-0.1-0.1,0-0.1-0.1s-0.1-0.2-0.2-0.4c-0.1,0-0.2,0.1-0.2-0.1c-0.1,0-0.1,0.1-0.2,0c0-0.1,0-0.2,0-0.2
		c-0.1,0-0.1,0.1-0.1,0.1s-0.1,0-0.1,0.1h-0.1v0.1c0,0-0.1,0.1-0.2,0.2c-0.2,0.1-0.5,0.2-0.7,0.2c-0.3,0-0.3,0.3-0.5,0.5
		s-0.3,0.2-0.5,0.3c-0.1,0.1-0.2,0.1-0.3,0.1c-0.1,0.1-0.2,0.2-0.1,0.3C43.2,48.8,43.3,48.8,43.4,48.9z M45,48.1
		c0.1,0.2-0.2,0.2-0.4,0.2l0,0c-0.1,0-0.1-0.1-0.1-0.2C44.6,48,44.9,48,45,48.1z"/>
	<path class="st0" d="M42.3,49.3c0.1,0.1,0.3,0.4,0.5,0.4s0.6-0.1,0.6-0.1s0,0,0.1,0c0.1-0.1,0.3-0.2,0.3-0.3c0-0.2-0.1-0.2-0.3-0.2
		c-0.3,0.2-0.6,0.1-0.8,0.1s-0.4-0.3-0.7-0.3C42.1,49.1,42.2,49.2,42.3,49.3z"/>
	<path class="st0" d="M49.5,53.3c-0.4,0-0.5-0.9-0.1-0.9c0-0.1,0-0.2,0-0.3s0.1-0.2,0.1-0.2c0.1-0.2,0.2-0.4,0.1-0.6
		c-0.1-0.2-0.3-0.3-0.5-0.3s-0.2,0.1-0.3,0.2l-0.1,0.1l-0.1,0.1c-0.4,0.3-0.9,0.4-1.2,0.7c-0.1,0.1-0.1,0.2-0.2,0.3
		c0,0.1,0,0.2-0.1,0.3c0,0.1-0.2,0.1-0.2,0.2v0.3c0.1,0,0.3-0.2,0.3-0.1c0.1,0.1-0.1,0.3-0.2,0.3c0.1,0.1,0.2-0.2,0.3-0.2
		c0.2-0.1,0.2,0.2,0.1,0.3c0,0.1-0.1,0.2,0,0.2c0,0.1,0.1,0.1,0,0.2c0,0.2-0.2,0.2-0.3,0.2c0,0.2-0.3,0.1-0.4,0
		c-0.2-0.1-0.3-0.1-0.5,0c-0.1,0-0.1,0.1-0.2,0.2c-0.1,0-0.1,0-0.2,0.1c-0.2,0.1-0.1,0.3-0.1,0.5c0.1-0.1,0-0.2,0.1-0.2s0.2,0,0.3,0
		c0,0.1,0,0.1,0,0.1C46,55,45.9,55,45.9,55.3c0.1-0.1,0.2-0.1,0.3-0.2c0.1-0.1,0.2-0.1,0.3-0.1c0.2,0,0.3,0,0.5,0s0.2,0.1,0.3,0.2
		c0.1,0,0.3-0.1,0.4-0.2c0.1-0.1,0.1-0.2,0.2-0.4c0-0.1-0.1-0.2-0.1-0.3s0-0.3,0.1-0.1c0-0.2,0.2-0.2,0.2-0.1c0.1,0.1,0,0.2,0.1,0.4
		c0,0,0.1-0.1,0-0.1c0.1,0.1,0.3,0,0.5,0c-0.1-0.1-0.3-0.4-0.2-0.5c0.1,0,0.1,0.1,0.2,0.1c0,0.1,0,0.2,0.1,0.2H49
		c0.1,0,0.2,0.2,0.3,0.2c-0.1-0.1-0.2-0.2-0.2-0.4C49.5,53.7,49.6,53.5,49.5,53.3z"/>
	<path class="st0" d="M41.3,50.5C41.4,50.5,41.4,50.6,41.3,50.5C41.4,50.6,41.4,50.6,41.3,50.5c0.2,0.2,0.1,0.4,0,0.5
		c-0.1,0.1-0.4,0.2-0.2,0.3c0.1,0.1,0.4,0,0.5,0c-0.1,0.1-0.2,0.2-0.1,0.3c0,0,0.5,0.1,0.2,0.2c0,0.1,0.1,0.1,0.2,0.2
		c0,0.2,0.3,0.2,0.4,0.3v0.1c0.1,0.1,0.2-0.1,0.3-0.1l0,0c0,0.1,0.1,0.2,0.1,0.3s-0.1,0.3-0.1,0.4c0.1,0,0.3-0.2,0.3-0.3
		s0-0.3,0.2-0.3c0,0.2,0,0.2,0.1,0.4c0,0.1-0.1,0.3-0.1,0.4c0.4-0.1,0.1-0.7,0.3-0.9c0.1-0.1,0.1-0.2,0.1-0.3s0-0.2,0-0.3
		s0.1-0.2,0.1-0.3l-0.1-0.1c0,0,0-0.1,0.1-0.2c0-0.1,0-0.2,0.1-0.3c0-0.1,0-0.2,0-0.4c0-0.1-0.1-0.2-0.1-0.2c-0.1,0.2,0,0.4-0.1,0.6
		c0,0.1,0,0.1-0.2,0.1c-0.1,0-0.2,0-0.3-0.1c0,0.1,0,0.2-0.1,0.2s-0.1-0.1-0.2-0.1c-0.1-0.1-0.2-0.3-0.3-0.4
		c-0.1-0.1-0.3-0.3-0.3-0.4c-0.1-0.2,0-0.4,0-0.6c-0.1,0-0.1,0-0.2,0c-0.1,0-0.2,0-0.2-0.1c-0.1,0-0.2-0.1-0.2,0s0.1,0.1,0.1,0.1
		c0,0.1,0,0.2-0.1,0.3c0,0.1,0,0.2,0,0.3c0,0.2,0,0.1-0.1,0.2C41.3,50.3,41.3,50.4,41.3,50.5C41.2,50.5,41.3,50.5,41.3,50.5z"/>
	<path class="st0" d="M62.2,37.2c0-0.1-0.1-0.3-0.1-0.5h0.1C62.3,36.8,62.3,37,62.2,37.2c0.1-0.2,0.1-0.4,0.2-0.5
		c0.1,0.1,0.2,0.3,0.4,0.2c0.1-0.1,0-0.4,0.3-0.3c0.2,0,0.2,0.3,0.3,0.4c0.1,0.1,0.2,0.2,0.2,0.4c0.4-0.5,0.3-1.4,0-1.9
		s-0.9-1.1-0.9-1.7c0-0.5,0.2-1,0.4-1.4c0.1-0.2,0.2-0.5,0.3-0.7c0.1-0.1,0.1-0.2,0.1-0.3c0,0-0.2-0.1-0.5-0.1c-0.2,0-0.3-0.1-0.5,0
		c-0.2,0-0.3,0.1-0.4,0.2c-0.1,0-0.4,0-0.5,0c-0.4,0-0.6,0.1-0.9,0.3c-0.2,0.1-0.2,0.1-0.3,0.3c-0.1,0.2-0.1,0.3-0.2,0.4
		c-0.2,0.1-0.3,0.1-0.4,0.4c-0.1,0.2,0,0.5-0.1,0.7c0.1-0.1,0.2-0.6,0.4-0.6c0,0.2,0,0.4,0,0.6c0.1-0.2,0.2-0.4,0.4-0.4
		c0,0.4-0.1,0.7,0,1s0.4,0.4,0.6,0.6c0.2,0.2,0.3,0.7,0.1,1c-0.1,0.1-0.3,0.1-0.5,0.2c-0.1,0.1-0.2,0.3-0.3,0.4
		c-0.1,0.1-0.2,0.2-0.3,0.2s-0.2-0.3-0.3-0.3s-0.2,0.1-0.4,0.1s-0.3,0-0.4,0c0.1,0.2,0.7,0.2,0.5,0.6c-0.1,0.2-0.2,0.1-0.3,0.3
		c-0.1,0.1-0.2,0.3-0.1,0.4c0.1-0.1,0.3-0.1,0.4-0.1c0.1,0,0.1,0,0.2,0c0.1,0,0.1-0.1,0.2-0.1c0.2,0,0.1,0.1,0.1,0.3
		c0,0.1,0,0.3,0.1,0.4c0-0.4,0.2-0.3,0.4-0.4c0.1-0.1,0.2-0.1,0.3-0.2c0.1-0.1,0.1-0.2,0.2-0.2c0,0.1,0,0.3,0.2,0.3
		c0-0.1,0-0.4,0.2-0.2c0.1,0.1,0.1,0.3,0.2,0.4c0.2,0,0.1-0.4,0.1-0.5c0.1-0.2,0.2,0.2,0.3,0.3c0-0.1,0-0.4,0.1-0.4
		C62.1,37,62.1,37.2,62.2,37.2z"/>
	<path class="st0" d="M66.5,46.2c-0.1,0.5,0.3,0.4,0.3,0.4c0.5,0,0.4-0.5,0.4-0.5c0.4-0.1,0.2-0.4,0.1-0.7c0-0.2-0.1-0.3-0.2-0.3
		c0.2-0.1,0.2-0.2,0.2-0.4c-0.1-0.4-0.4-0.4-0.4-0.4c-0.3,0-0.4,0.2-0.4,0.3c0,0.2,0.1,0.3,0.1,0.4c0,0,0,0,0.1,0
		c-0.3,0-0.3,0.3-0.3,0.3c0,0.3-0.2,0.4-0.2,0.4c-0.2,0.1-0.1,0.2-0.1,0.2C66.3,46.4,66.5,46.2,66.5,46.2z M66.7,45.8
		c0.1-0.1,0.2-0.3,0.2-0.3c0-0.1,0.1,0,0.1,0.1s0,0.2,0.1,0.3c0.1,0.1,0,0.2,0,0.1c-0.1,0-0.2,0-0.3,0s-0.3,0.1-0.3,0
		C66.5,45.9,66.6,45.8,66.7,45.8z"/>
	<path class="st0" d="M58.6,30.1c0.1,0.1,0.1,0.3,0.2,0.3c0.1,0.1,0.2,0.1,0.3,0.2c0-0.1-0.1-0.4,0.1-0.4c0.2,0,0.2,0.2,0.2,0.3
		c0.2-0.2,0.2,0,0.4,0c0.1,0,0.3-0.1,0.5-0.1c0.1,0,0.3-0.1,0.4,0c0.1,0,0.4,0.1,0.4-0.1h0c0,0.1,0.1,0.2,0.1,0.1
		c0.1-0.1,0-0.2,0.1-0.2c0,0.2,0.5,0.4,0.6,0.2c0,0-0.1-0.1-0.1-0.2c0.1,0.1,0.4,0.1,0.4,0c-0.1,0-0.2-0.2-0.1-0.3
		c0.1,0.1,0.1,0.3,0.3,0.2c0.1-0.1,0.1-0.3,0.1-0.4c0.1,0.1,0.1,0.2,0.2,0.2c0.1,0,0.2-0.2,0.3-0.2c0-0.1,0.1-0.2,0.2-0.2
		c0.1,0,0.2,0.2,0.2,0.3c0.1,0.2,0.2,0.3,0.2,0.5c0.1,0.2,0.1,0.5,0,0.7c-0.1,0.5-0.2,0.9-0.4,1.3c-0.2,0.4-0.4,0.8-0.5,1.3
		c0,0.5,0.1,0.8,0.4,1.2c0.3,0.4,0.5,0.7,0.6,1.2s0,0.9-0.1,1.3c0,0.1,0,0.2-0.1,0.3s-0.2,0.1-0.3,0.2C63.1,37.9,63.1,38,63,38
		c-0.1,0.1-0.2,0-0.3-0.1c0-0.1,0-0.2,0-0.3c-0.1-0.1-0.2,0-0.3,0s-0.6,0-0.6,0.2l0,0c0.1,0.1,0.3,0,0.4,0.1c0,0,0,0.1,0.1,0.2
		c0,0,0,0,0,0.1h0.1c0.1,0.1-0.1,0.2-0.1,0.3s-0.2,0.3-0.1,0.3c0.1,0,0.2-0.1,0.4-0.1c0.1,0,0.1,0,0.2,0c0.1,0,0.1-0.1,0.1-0.2
		c0.1-0.1,0.2-0.1,0.3,0s0,0.3,0.1,0.3c0.1-0.1,0.2-0.2,0.3-0.3s0.1-0.1,0.2-0.3c0.1-0.2,0.4-0.2,0.6-0.1c0.1,0,0.1,0.2,0.2,0.2
		l0.1-0.1c0.1,0,0.1,0,0.2,0c0.4,0-0.1-0.2-0.2-0.3l0,0c0.1-0.1,0.3,0,0.4,0c0.1,0,0.4-0.1,0.2-0.2c0.1,0,0.1,0,0.1-0.1
		c-0.1,0-0.1-0.1-0.2-0.1c0.1,0,0.3,0.1,0.4,0c0.1-0.1,0.1-0.3,0.1-0.4c0.1,0,0.1-0.1,0.1-0.2c0.1-0.1,0.2,0,0.2-0.2
		c0-0.1,0,0,0-0.1c0,0-0.1,0-0.1-0.1c0.1-0.1,0.2,0.1,0.3,0s0-0.3,0.1-0.4l0,0c0,0,0-0.1-0.1-0.1c0.1,0,0.1-0.2,0-0.2
		c0.1,0,0.1-0.1,0.1-0.2c0,0,0.1,0,0.2,0c0-0.1,0-0.2,0-0.3c-0.1,0-0.2,0.1-0.4,0.1c-0.1,0-0.3-0.2-0.4-0.2c0,0.1-0.1,0-0.1,0
		c-0.1,0-0.1,0.1-0.1,0.1c-0.1,0.1-0.1,0-0.2,0.1c-0.1,0-0.1,0.1-0.1,0.1c-0.1,0.1-0.1,0.1-0.2,0.1c0-0.1,0.1-0.2,0.1-0.3
		c0.1-0.1,0.2-0.1,0.2-0.2c-0.1,0-0.2,0.1-0.3,0s0-0.2,0-0.3c0-0.2,0.2-0.4,0.1-0.5L65,34.2c0-0.1,0-0.1,0-0.1
		c0-0.1-0.2-0.1-0.2-0.2c0-0.1,0-0.2,0.1-0.3c0-0.1,0.1-0.2,0.1-0.3c0.1-0.3,0.2-0.3,0.2-0.5c0-0.1,0-0.5,0.1-0.5
		c0.2-0.1,0.4,0.1,0.5,0.1c0.2,0,0.4-0.1,0.5-0.1c-0.1-0.1-0.3-0.1-0.4-0.3c0.1-0.1,0.5-0.1,0.6,0c0.2,0.1,0.2,0.2,0.2,0.4
		c0.1,0,0.1-0.2,0.2-0.3c0,0,0,0.1,0.1,0.1c0-0.1,0.1-0.1,0.1-0.2c0.1,0,0.1,0.1,0.1,0.2c0.1-0.1,0-0.3,0.1-0.4
		c0.1,0,0.1,0.1,0.1,0.2l0.1,0.1c0-0.1-0.1-0.3-0.1-0.4c0-0.2,0-0.4,0.1-0.5c-0.1,0-0.1,0.1-0.1,0.1c-0.1,0-0.2,0-0.2-0.1
		s0.2-0.1,0.2-0.1c0.1,0,0.2-0.1,0.3-0.2c0.1-0.2,0.2-0.3,0.1-0.5c-0.1-0.2-0.1-0.3,0-0.5c-0.1,0-0.3,0.3-0.5,0.2
		c-0.1-0.1,0.1-0.1,0.1-0.2c0.1-0.1,0-0.1,0-0.2c0.2,0,0.2-0.3,0.2-0.4s0-0.1-0.1-0.2c0-0.1,0-0.2,0-0.2c-0.1,0-0.3,0.2-0.3,0.2
		c0,0.1,0,0.2,0,0.2c0,0.1,0,0.1,0,0.2l0,0c0-0.1-0.1-0.3-0.1-0.4s0-0.2,0-0.2c0-0.1,0.1-0.1,0.1-0.2c-0.2,0-0.2,0-0.2-0.2
		c0-0.1,0.1-0.2,0.1-0.3c0.2-0.1,0.3,0,0.5,0c0.1,0,0.2-0.1,0.2-0.1c0-0.1,0-0.1,0.1-0.2c0,0,0.2-0.2,0.1-0.2c0-0.1,0.2-0.1,0.2-0.2
		s-0.1-0.1-0.2-0.1c-0.1,0-0.2-0.2-0.2-0.1c-0.1,0.1,0.1,0.2-0.1,0.2c0,0.1,0,0.3-0.2,0.4s-0.3-0.1-0.2-0.3c-0.1,0-0.1-0.1-0.1-0.2
		l0.1-0.1c0,0-0.1,0-0.1-0.1s0.3-0.3,0.1-0.5c0,0,0,0,0,0.1c-0.1-0.1,0-0.3,0.1-0.4c0.1-0.1,0.3,0,0.4-0.1c0.1,0,0.1-0.1,0.1-0.1
		s0.2,0,0.2-0.1S68,26,68,25.9s0-0.1,0.1-0.2c-0.2-0.1,0-0.2,0-0.3L68,25.3c0,0-0.2,0.1-0.2,0c0,0,0-0.1,0-0.2s0-0.2,0-0.2
		c-0.1-0.2-0.1,0.1-0.2,0.2c-0.1-0.1-0.1-0.2-0.1-0.3h-0.1c0-0.1,0-0.2,0-0.3c0-0.1,0.1-0.1,0.2-0.1l0,0h0.1c0,0,0-0.1,0.1,0
		c0.1,0.1,0,0.2,0.1,0.2c0,0.1,0,0.1,0,0.2H68c0,0.1,0,0.2,0.1,0.1c0.1,0,0.1-0.1,0.1-0.2c0.1-0.1,0.1,0,0-0.2
		c0-0.1-0.1-0.1-0.1-0.2c0.1,0,0.2,0.1,0.3,0.1c0-0.1-0.2-0.1-0.2-0.2C68.1,24.1,68,24.1,68,24c-0.1,0-0.7,0-0.6,0.1
		c-0.2-0.1-0.2,0.2-0.2,0.3c0,0.2,0,0.4,0.1,0.6c0.1,0.2,0.2,0.3,0.2,0.5s-0.1,0.4-0.2,0.5c-0.1-0.1-0.1-0.4-0.2-0.5
		c-0.1-0.1-0.2-0.3-0.2-0.5c-0.1,0.1-0.1,0.5-0.1,0.6c0,0.2,0.2,0.4,0.2,0.6s-0.1,0.4,0,0.7c0,0.1,0,0.2,0,0.3
		c0,0.1-0.1,0.2-0.1,0.3c0,0.1,0,0.2,0.1,0.3c0.1,0.1,0.2,0,0.2,0.2c0,0.1-0.2,0.3-0.3,0.4c0,0.1,0,0.2,0,0.3c0,0.1,0,0.2,0,0.3
		c0,0.2,0.1,0.4,0.1,0.6c0,0.1,0,0.2,0.1,0.3c0.1,0.1,0.1,0.1,0.1,0.2c0,0.2,0,0.4,0,0.7c0,0.1,0,0.2-0.1,0.3
		C67,31.2,67,31.2,67,31.3c0,0.2-0.2,0.3-0.4,0.4c-0.3,0.2-0.9,0.1-1.2,0c-0.1-0.1-0.2-0.1-0.2-0.2s0-0.2,0-0.3
		c0-0.2-0.1-0.4-0.1-0.6c-0.1-0.4-0.2-0.8-0.3-1.2c0-0.2-0.1-0.4-0.1-0.6c0-0.1,0-0.2,0-0.3c0-0.1,0.1-0.1,0.1-0.2
		c-0.4-0.1,0.2-0.4,0.2-0.4c-0.2,0-0.1-0.1-0.1-0.2c0.1-0.1,0.2-0.2,0.3-0.2c0-0.1,0-0.1-0.1-0.1c-0.1-0.1,0-0.1-0.1-0.2
		c-0.1-0.1-0.3,0-0.3-0.2c-0.1-0.4,0.6,0.2,0.7-0.2c-0.2,0-0.4-0.1-0.4-0.3c0-0.1,0-0.1,0-0.3c0-0.1-0.1-0.2,0-0.3
		c0.1,0.1,0,0.2,0.1,0.3c0.1,0.1,0.2,0.1,0.3,0.1c0-0.1,0.1,0,0.1-0.1c0.1,0,0,0,0.1-0.1c0-0.1,0.1-0.2,0.2-0.3
		c-0.1,0-0.3,0.1-0.4,0c-0.1-0.1,0-0.3,0-0.4s-0.1-0.3-0.1-0.4c0-0.2-0.2-0.3-0.2-0.5c0-0.1,0-0.2,0-0.2s-0.1-0.1-0.2-0.1
		c-1,0.1-1.9-0.1-1.9-0.1c-0.1,0.1-0.2,0.1-0.3,0.2s-0.2,0.2-0.3,0.2c-0.2,0.1-0.7,0-0.6,0.3c0,0.2,0.2,0.1,0.3,0.2s0,0.2,0.1,0.3
		c-0.1,0.1-0.3-0.1-0.5-0.2c-0.1-0.1-0.3-0.2-0.4-0.2c-0.1-0.2-0.1-0.3-0.1-0.3s-0.1,0.1-0.1,0.2c0,0.2,0,0.4,0,0.5
		c0.1,0.1,0.2,0.3,0.3,0.5s0.3,0.1,0.5,0.1c0.1,0,0.4-0.2,0.5-0.1h0.1l0,0v0.1c0,0,0,0,0-0.1c0,0.1,0,0.2-0.1,0.3
		c0-0.1-0.1-0.1-0.1-0.1c0,0.2-0.1,0.1-0.2,0.1c0,0.1,0,0.1,0,0.2c0,0-0.1,0-0.2,0c0,0.2-0.1,0.3-0.1,0.4c0,0,0.1,0,0.2,0
		c0.1,0.5-0.6,0.2-0.8,0.4c-0.1,0.1-0.1,0.2-0.2,0.2c-0.2,0-0.3,0-0.2,0.3c0.1,0.1,0.1,0.1,0.1,0.3c0,0.2-0.1,0.2-0.1,0.4v0.1
		c0,0-0.1,0-0.1,0.1s0,0.2-0.1,0.2h-0.1c-0.1,0.1-0.1,0.2-0.2,0.3c-0.1,0.1-0.2,0.2-0.4,0.2c-0.1-0.2-0.9,0.5-1.1,0.5
		c0-0.1,0-0.2-0.1-0.3c-0.1-0.1-0.1-0.1-0.2-0.2c-0.1-0.2-0.1-0.5-0.4-0.3c0.1,0.2-0.1,0.3-0.1,0.5s0.1,0.4,0.1,0.6
		c-0.1,0.2-0.3,0.3-0.4,0.5c-0.1,0.2-0.1,0.3-0.2,0.5C58,29.7,58.4,29.8,58.6,30.1z M63.6,24c0.3,0.1,0.1,0.5-0.1,0.3
		c-0.1-0.1-0.2-0.1-0.2-0.2C63.3,23.9,63.5,23.9,63.6,24z"/>
	<path class="st0" d="M52.8,42.6c0-0.2-0.1-0.2-0.1-0.2c-0.1,0-0.1,0.2-0.1,0.2v0.2h0.3v-0.2H52.8z"/>
	<path class="st0" d="M62.8,43.4c-0.1,0.5,0.3,0.4,0.3,0.4c0.5,0,0.4-0.5,0.4-0.5c0.4-0.1,0.2-0.4,0.1-0.7c0-0.2-0.2-0.3-0.2-0.3
		l0,0l0,0l0,0c0.2-0.1,0.2-0.3,0.2-0.4c-0.1-0.4-0.4-0.4-0.4-0.4c-0.3,0-0.4,0.2-0.4,0.3c0,0.2,0.1,0.4,0.1,0.4s0,0,0.1,0
		c-0.3,0-0.3,0.3-0.3,0.3c0,0.3-0.2,0.4-0.2,0.4c-0.2,0.1-0.1,0.2-0.1,0.2C62.5,43.6,62.8,43.4,62.8,43.4z M63,43
		c0.1-0.1,0.1-0.3,0.1-0.3c0-0.1,0.1,0,0.1,0.1s0,0.2,0.1,0.3s0,0.2-0.1,0.1c-0.1,0-0.2,0-0.3,0s-0.3,0.1-0.3,0
		C62.8,43.1,62.9,43,63,43z"/>
	<path class="st0" d="M62.6,50.3c0-0.3,0.2-0.6,0.6-0.6c0.1,0,0.5,0.1,0.5,0.6c0,0.2,0,0.4,0,0.8c0.1,0,1.6-0.3,2-0.6
		c0-1.9-0.2-4.2-2.5-4.3c-2.3,0-2.6,2.2-2.6,4c0.6,0.4,1.4,0.6,1.9,0.7C62.5,51,62.5,50.6,62.6,50.3z"/>
	<path class="st0" d="M59.3,45.2c0.2-0.1,0.2-0.3,0.2-0.4c-0.1-0.4-0.4-0.4-0.4-0.4c-0.3,0-0.4,0.2-0.4,0.3c0,0.2,0.1,0.3,0.1,0.4
		c0,0,0,0,0.1,0c-0.3,0-0.3,0.3-0.3,0.3c0,0.3-0.2,0.4-0.2,0.4c-0.2,0.1-0.1,0.2-0.1,0.2c0.1,0.3,0.4,0.1,0.4,0.1
		c-0.1,0.5,0.3,0.4,0.3,0.4c0.5,0,0.4-0.5,0.4-0.5c0.4-0.1,0.2-0.4,0.1-0.7C59.5,45.3,59.4,45.2,59.3,45.2z M59.2,46
		c-0.1,0-0.2,0-0.3,0s-0.3,0.1-0.3,0s0.1-0.1,0.3-0.2c0.1-0.1,0.1-0.3,0.1-0.3c0-0.1,0.1,0,0.1,0.1s0,0.2,0.1,0.3
		C59.4,46,59.3,46,59.2,46z"/>
	<path class="st0" d="M53.3,42.6c0,0,0-0.2-0.1-0.2c0,0-0.1,0-0.1,0.2v0.2h0.3v-0.2H53.3z"/>
	<path class="st0" d="M43.6,42.6c0-0.2-0.1-0.2-0.1-0.2c-0.1,0-0.1,0.2-0.1,0.2v0.2h0.3v-0.2H43.6z"/>
	<path class="st0" d="M44.1,42.6c0,0,0-0.2-0.1-0.2c0,0-0.1,0-0.1,0.2v0.2h0.2V42.6z"/>
	<path class="st0" d="M60.1,52.7c0,0-0.1,0.4,0.2,0.5c0,0,0.4,0.2,0.5-0.3l0.2-0.6c-0.2-0.1-0.5-0.2-0.7-0.3L60.1,52.7z"/>
	<path class="st0" d="M66.2,51.9l-0.1-0.8l-0.3-0.2l0,0c-0.8,0.5-1.7,0.6-2.5,0.6c-1.3-0.1-2.2-0.6-2.6-0.8l-0.6,0.2v0.8
		C63.2,53.4,66.2,51.9,66.2,51.9z"/>
	<path class="st0" d="M62.6,53.4c0,0,0,0.5,0.5,0.4c0,0,0.4,0,0.4-0.4v-0.7c-0.3,0-0.6,0-0.9,0V53.4z"/>
	<path class="st0" d="M66.1,52.1c-0.2,0.1-0.4,0.2-0.7,0.3l0.2,0.6c0,0,0.1,0.4,0.4,0.3c0,0,0.4,0,0.3-0.5L66.1,52.1z"/>
	<path class="st0" d="M59,24.9c0.2,0.1,0.3,0.3,0.3,0.5c0.1,0.2,0.1,0.4-0.1,0.5c-0.1,0.1-0.4,0.2-0.5,0.2c0.3,0,0.6,0.1,0.9,0.1
		c0.5-0.1-0.1,0.4,0.2,0.6c0.2-0.2,0.3,0.1,0.4,0.2c0.1,0.2-0.1,0.3-0.2,0.5c0.1,0,0.2,0,0.3,0.1c0,0.1,0,0.3-0.1,0.3c0,0,0,0,0.1,0
		c0,0.1,0.1,0.1,0.1,0.1h0.1c0.2,0,0.4-0.5,0.5-0.4c0-0.2,0.2-0.4,0.1-0.6c-0.1-0.3-0.2-0.4,0.1-0.6c-0.1,0-0.2-0.2-0.2-0.3
		c0.2-0.1-0.3-0.4-0.4-0.6c0-0.1,0-0.1,0-0.2h-0.1v-0.1c-0.1-0.1,0-0.3-0.1-0.5c0-0.1-0.1-0.3-0.1-0.4c0-0.2,0.1-0.2,0.1-0.4
		c0-0.2-0.2-0.7-0.5-0.6c0,0,0,0-0.1,0c0,0.1,0.1,0.2,0,0.3c0,0.1-0.1,0.1-0.1,0.2s0,0.2,0,0.2c-0.1,0-0.2-0.2-0.3-0.3
		c-0.1-0.2-0.2-0.2-0.4-0.2c-0.3,0-0.1,0.1-0.1,0.4c0,0.2,0.2,0.3,0.2,0.4c-0.1,0-0.1-0.1-0.2,0c0,0,0,0.1-0.1,0.1h-0.1
		c-0.1,0.1-0.3,0.3-0.3,0.4C58.5,24.9,58.8,24.9,59,24.9z"/>
	<path class="st0" d="M77.2,19.2c0-0.1,0-0.3,0.1-0.4v-0.2l0,0c0-0.4,0.4-1.5,0.4-1.6l0.3-0.9l-1.1,0.7c-0.3-1.1-0.9-1.9-1.8-2.1
		c-0.2-0.2-0.9-1.1-2.3-1.1c-0.6,0-1.2,0.2-1.8,0.5l-0.3,0.2l0,0c-0.2,0.1-0.3,0.2-0.5,0.4c-0.8-0.7-2.8-2.2-4.9-2.2
		c-0.2,0-0.3,0-0.5,0l0.3-0.8h0.1v-0.2c0.1-0.2,0.2-0.5,0.2-0.6v-0.1l-0.1-0.5l1.5-4.2l0.3-0.6l0.3-0.8l-1.3-0.8V4L65,3.6l0,0V3.5
		l-1.7-0.2l-0.2,1.1L63,5l-0.4,1.3l0,0l0,0c-0.1-0.1-0.2-0.2-0.4-0.3l0.2-1.4l0.1-0.3l0.1-1l-1.4-0.5v0.1l-1-0.2V2.6l-1.5,0.1
		l-0.2,0.9v0.2l0.2,0.5l-0.1,1.4h-0.3l0,0l-0.4-0.1L58,3.9l0.1-0.6V2.5l-1.6-0.2l0,0h-0.6h-0.3l-0.3,0.1V2.3l-1.5,0.3l-0.1,0.9
		l0.2,0.6L54,5.8l-0.4,0.1l0,0h-0.3l-0.2-1.6l0.1-0.5l-0.1-1l-1.5-0.1v0.1l-1,0.2V2.9l-1.4,0.4l0.1,1.1l0.1,0.2l0.1,0.7l0,0L49.6,6
		c-0.2,0.1-0.3,0.2-0.4,0.3l0,0l0,0l-0.4-1.4l-0.1-0.8l-0.2-0.8L47,3.5v0.1l0,0L45.9,4l0,0l-1.4,0.8l0.3,0.9l0.3,0.5l1.5,4.2
		l-0.1,0.5V11c0,0.1,0.1,0.4,0.3,0.7l0.3,0.9c-0.1,0-0.3,0-0.5,0c-2.1,0-4.1,1.5-4.9,2.2c-0.1-0.1-0.3-0.2-0.4-0.4l0,0L41,14.2
		c-0.6-0.4-1.2-0.5-1.8-0.5c-1.3,0-2.1,0.9-2.2,1.1c-0.9,0.2-1.5,1-1.8,2.1l-1.4-0.6l0.5,1.4c0.1,0.1,0.2,0.5,0.2,0.9l0,0v0.2
		c0,0.2,0,0.3,0.1,0.4c-0.1,0-0.2,0.1-0.2,0.2c-0.3,0.3-0.3,0.9-0.2,1.1l0.3,2.1l0.6-1.5c0.1,0.1,0.2,0.2,0.2,0.3
		c0.1,0.1,0.1,0.2,0.2,0.3c0.2,0.3,0.6,0.7,0.9,1c0.1,0.1,0.2,0.2,0.2,0.3c-0.3,0.1-0.9,0.8-1,0.8c0,0,0.6,0,0.9,0.3v0.1
		c-0.1,0.3,0.1,0.7,0.3,0.9v0.1c0,0.2,0.1,0.4,0.2,0.6l-1.6,0.9l1.4,0.1l-0.2,1c0.1,0,0.7,0,0.7,0c0.3,0,0.5,0.2,0.6,0.4l-1-0.1
		l0.4,1c0.1,0.2,0.3,0.7,0.3,1.1c0,0.1,0,0.2,0,0.3c-0.1,0-0.2-0.1-0.4-0.1h-0.8l0.1,0.8c0.1,0.4,0.1,1,0,1.4
		c-0.1,0.2-0.1,0.4-0.1,0.6c-0.2-0.1-0.3-0.1-0.5-0.1l-0.7,0.1l0.2,0.7c0,0,0,0.1,0.1,0.1c0.1,0.3,0.3,0.5,0.3,0.7
		c-0.3,0-0.6,0-0.8,0.2l-0.8,0.6l0.6,0.3l-0.5,0.1l0.4,0.7c0.1,0.1,0.1,0.3,0.1,0.4c0,0,0,0.1,0,0.2c-0.1,0.5-0.5,1.8,0,3.3v0.1
		c0,0,0.3,0.8,0.7,1.4l0.1,0.1c0.1,0.1,0.1,0.2,0.2,0.2h-0.3l-0.1,0.2l0,0h-0.1h-0.1c-0.1,0-0.1,0-0.1,0.1l-0.2,0.1
		c-0.1,0.1-0.2,0.2-0.2,0.4c0,0.1,0,0.2,0,0.3c-0.2,0.2-0.3,0.5-0.3,0.7c-0.1,0.1-0.2,0.6,0,0.9c0.1,0.2,0.4,0.3,0.6,0.3
		c0.2,0,0.3-0.1,0.4-0.1l0.3-0.1c0.1,0.1,0.2,0.3,0.3,0.4c0.3,0.4,0.5,1.3,0.6,2.1l-0.2-0.2l0.1,1.1c-1-0.1-1.9,0.9-2,1.4
		c-0.1,0.6,0,1.1,0,1.1s0.9-0.9,1.5-0.8c0.3,0,0.5,0.4,0.5,0.5h-0.1c0,0,0,0.1,0,0.4c0,0.2,0,0.3,0,0.5c0,0.3,0,0.6-0.1,0.8
		c0,0.1,0,0.2-0.1,0.3L35.8,52l-0.1,1.7c0,0.2-0.2,0.7-0.2,0.9c0,0.1-0.1,0.1-0.1,0.2c0,0.1,0,0.1-0.1,0.2c-0.1,0.3-0.2,0.5-0.5,1.6
		c-0.4,1.7,0.9,3.9,1,4.1c0.1,0.1,0.1,0.2,0.2,0.5l0.1,0.2c0.2,0.4,0.3,0.6,0.9,1.1l0.3,0.3c0.4,0.4,0.7,0.6,1,0.7l-2.2,0.4
		c0.1,0,1.3,0.8,3.4,1c0.6,0.1,1.3-0.1,1.9-0.2c0.1,0.1,0.4,0.2,0.8,0.2c0.1,0,0.2,0,0.2,0s0.5,0.2,1.1,0.2c0.1,0,0.1,0,0.2,0
		c0.1,0,0.3,0,0.4-0.1l0,0c0.2,0,0.6,0,1-0.3c0.3,0.3,0.8,0.5,1.4,0.5c0.2,0,0.5,0,0.8-0.1h0.1c0.2-0.1,0.8-0.3,1.1-0.7l1-1.2l0,0
		l-0.2,1.1l1.5-0.8c0.1,0,0.3-0.1,0.4-0.1c0.5,0.1,0.9,0,1.2-0.2v1.4l1.1-1.5c0,0,0.1,0,0.2,0c0,0.1,0,0.2,0,0.3h1.2l0,0
		c0.1,0,0.3-0.1,0.4-0.1c0.2,0.3,0.5,0.5,0.8,0.5c0.4,0,0.7-0.2,0.9-0.5c0.1,0.1,0.2,0.1,0.4,0.1l0,0l0,0h1.2c0-0.1,0-0.2,0-0.3
		c0.1,0,0.1,0,0.2,0l1.1,1.5v-1.4c0.3,0.2,0.7,0.3,1.2,0.2c0.1,0,0.3,0.1,0.4,0.1l1.5,0.8L62.4,63l1,1.3c0.3,0.4,1,0.7,1.1,0.7h0.1
		c0.3,0.1,0.5,0.1,0.8,0.1c0.7,0,1.1-0.2,1.4-0.5c0.4,0.3,0.7,0.4,1,0.3l0,0c0.1,0.1,0.3,0.1,0.4,0.1c0.1,0,0.2,0,0.2,0
		c0.3,0.1,1.1-0.2,1.1-0.2c0.1,0,0.1,0,0.2,0c0.4,0,0.7-0.1,0.8-0.2c0.7,0.2,1.3,0.2,1.9,0.2c1.6,0,3.5-0.8,3.6-0.9l-2.4-0.5
		c0.3-0.1,0.6-0.3,1-0.7l0.3-0.3c0.5-0.6,0.7-0.7,0.9-1.2l0.1-0.2c0.1-0.2,0.2-0.4,0.2-0.4c0.2-0.2,1.4-2.4,1-4.1
		c-0.2-1.1-0.3-1.3-0.5-1.6c0,0,0-0.1-0.1-0.2c0-0.1,0-0.1-0.1-0.2c-0.1-0.2-0.3-0.7-0.3-0.9L76,52.1l-0.4,0.5
		c0-0.1-0.1-0.2-0.1-0.3c-0.1-0.3-0.1-0.5-0.1-0.9c0-0.2,0-0.3,0-0.5c0-0.3,0-0.4,0-0.4v0.1h-0.1l0,0c0,0,0.3-0.8,1.2-0.4
		c0.3,0.1,0.8,0.6,0.8,0.6s0-0.7-0.3-1.3c-0.1-0.2-0.7-1.1-1.6-1.1c-0.1,0-0.1,0-0.1,0l0.1-1.1l-0.2,0.2c0.1-0.8,0.3-1.7,0.6-2.1
		c0.1-0.1,0.2-0.3,0.3-0.4l0.3,0.1c0.1,0,0.2,0.1,0.4,0.1s0.5-0.1,0.6-0.3c0.2-0.4,0.1-0.8,0-0.9c-0.1-0.2-0.2-0.4-0.3-0.7
		c0-0.1,0-0.2,0-0.3c-0.1-0.3-0.3-0.5-0.5-0.6h-0.1h-0.1l0,0l-0.2-0.2h-0.3c0-0.1,0.1-0.2,0.1-0.2v-0.1c0.4-0.6,0.7-1.4,0.8-1.4
		v-0.1c0.4-1.5,0.1-2.8,0-3.3c0-0.1,0-0.1,0-0.2c0-0.1,0.1-0.3,0.1-0.4l0.4-0.7l-0.5-0.1l0.6-0.3l-0.7-0.6c-0.2-0.2-0.5-0.2-0.8-0.2
		c0.1-0.2,0.2-0.5,0.3-0.7c0-0.1,0.1-0.1,0.1-0.1l0.2-0.7L75.8,33c-0.2,0-0.4,0-0.5,0.1c0-0.2-0.1-0.4-0.1-0.6c-0.1-0.4-0.1-1,0-1.4
		l-0.1-0.8h-0.8c-0.1,0-0.2,0-0.4,0.1c0-0.1,0-0.2,0-0.3c0-0.4,0.2-0.9,0.3-1.1l0.4-1l-0.9,0.2c0.2-0.2,0.4-0.4,0.6-0.4
		c0.1,0,0.8-0.1,0.8-0.1l-0.3-0.9l1.4-0.1l-1.6-0.9c0.1-0.2,0.2-0.4,0.2-0.6v-0.1c0.3-0.3,0.4-0.6,0.3-0.9c0,0-0.1-0.1,0-0.1
		c0.2-0.2,0.8-0.3,0.8-0.3C75.8,23.4,75.1,23,75,23c0.1-0.1,0.2-0.2,0.3-0.3c0.3-0.4,0.6-0.7,0.9-1c0.1-0.1,0.1-0.2,0.2-0.3
		c0.1-0.1,0.1-0.2,0.2-0.3l0.7,1.6l0.3-2.3c0-0.2,0.1-0.7-0.2-1.1C77.4,19.3,77.3,19.2,77.2,19.2z M71.2,14.7
		c2.2-1.2,3.4,0.4,3.4,0.4c-2.4-0.8-1.5,2.8-1.5,2.8c-0.2,0-0.4-0.2-0.7-0.5c-0.2-0.3-0.6-0.3-0.6-0.3c0.6,0.7,0,2,0,2
		s-0.5,0.8-0.5,0.5s-0.1-0.4-0.8-1.1c-0.7-0.6-0.3-1.5-0.3-1.5c-0.2,0-0.6,0.3-0.6,0.3C69.2,15.8,71.2,14.7,71.2,14.7z M72.7,20
		c-0.5,0.3-1.2,0.6-1.3,1c0,0,0-0.8,0.7-1.2c0.7-0.4,0.9-0.5,0.9-1C73,18.7,73.2,19.7,72.7,20z M71.9,33.8c0,0,0-0.4,0.1-0.5
		c0.1-0.1,0.2-0.2,0.2-0.3s0.6,0.7,0.4,1c-0.2,0.4-0.4,0.5-0.4,0.8c0,0.2,0.2,0.6,0.3,0.3s0.3-0.9,0.6-1c0,0-0.2,0.6-0.1,1
		c0.2,0.4,0.4,0.7,0.8,1.1c0.4,0.4,1,1.2,0.7,2.3s-0.4,1.8-0.6,2.2c-0.1,0.4-0.3,1.3-0.4,2.4c-0.1,1.1-0.4,3.3-0.4,3.5s0,2.1,0,2.2
		c0-0.1-0.4-2-0.2-3.6c0.2-1.7,0.4-2.3,0.5-3.3c0.1-1,0-1.7-0.4-2.1c-0.5-0.4-0.5-0.6-0.9-0.4c-0.4,0.2-0.6,0.2-0.4-0.1
		c0.2-0.4,0.7-0.4,0.9-0.2c0,0-0.4-0.4-0.6-0.6c-0.2-0.2-0.8-0.6-0.8-1.2c0-0.6,0.1-0.7,0.1-0.7s0.2,0.4,0.3,0.5
		c0.1,0.1,0.2,0.5,0.4,0.5s0.5-0.1,0.2-0.4c-0.3-0.4-1-1.1-0.9-1.6c0.1-0.5,0.1-0.8,0-1.1c0-0.3-0.2-0.7-0.2-1s0-1.9,0-1.9
		c0,0.1,0.7,1.4,0.6,1.9C71.7,33.9,71.8,33.7,71.9,33.8z M72.6,50.6c0,0.3-0.4-2.4-0.4-3.4c0.1-1,0.2-1.8-0.2-2.8s-0.9-1.9-0.9-2.8
		c0,0,0.8,0.2,1,1.2c0,0,0.1-0.3-0.2-0.9c0,0-0.2-0.7-0.1-1.4c0,0,0.1,0.5,0.3,0.7c0.2,0.3,0.4,0.6,0.3,1c0,0,0.2-0.3-0.2-1l0,0
		c-0.3-0.8,0.2-1.2,0.2-1.2c0,0.1,0.1,0.7,0.3,1.3s0.5,1.7,0.2,2.9s-0.3,2.3-0.4,2.9C72.5,47.8,72.6,50.4,72.6,50.6z M42.7,42v-0.4
		H43v0.2h0.2v-0.3h0.9v0.3h0.2v-0.2h0.3V42l-0.2,0.3v1.4l0.4,0.5v1.1h-0.7v-0.9c0,0,0-0.4-0.3-0.4c0,0-0.3,0-0.4,0.4v0.9h-0.8v-1.1
		l0.4-0.5v-1.4L42.7,42z M44.9,46c3.1-0.6,3.2-2.8,3.2-2.8v-2.8h0.4v2.8c0,0,0.1,2.2,3.2,2.8c0,0,2.5,0.3,3.9,1.7V59
		c-1.5-1-5.4-1-5.4-1c-3.9-0.2-5.5-1.1-5.5-1.1c-2.6-0.9-3.5-2.4-3.8-3.6v-5.6C42.5,46.3,44.9,46,44.9,46z M52,42v-0.4h0.3v0.2h0.2
		v-0.3h0.9v0.3h0.2v-0.2h0.3V42l-0.2,0.3v1.4l0.4,0.5v1.1h-0.7v-0.9c0,0,0-0.4-0.3-0.4c0,0-0.3,0-0.4,0.4v0.9h-0.8v-1.1l0.4-0.5
		v-1.4L52,42z M44.4,19.9c-0.1-0.1-0.6-0.8-0.7-0.8c-0.5-0.4-2.1,0.5-2,0.5c0.2-0.7,1.1-1.1,1.6-1.2c0.6-0.1,0.7-0.2,1-0.6
		c0.3-0.5,0.1,0.6,0.1,0.6C43.9,19.4,44.5,20,44.4,19.9z M41.8,19.9c0.5-0.4,1.6-1,2.2-0.2c0.1,0,0.8,1.2,0.4,1.2
		c-0.4,0-0.6,0-0.7-0.1c-0.1-0.1-0.1-0.6-0.4-0.7c0,0,0.4,0.8,0.1,0.9c0,0-0.4,0.2-0.6-0.2c-0.2-0.4-0.3-0.5-0.5-0.4
		c0,0,0.5,0.6,0.2,0.6c-0.2,0.1-0.3-0.3-0.6-0.3c-0.3-0.1-0.8,0.5-1.3-0.1C40.8,20.5,41.3,20.3,41.8,19.9z M44.5,21.6
		c0,0.1,0,0.1,0,0.2c-0.2,0-0.4,0.3-0.4,0.5s0.2,0.5,0.1,0.7c-0.1,0.2-0.4,0.3-0.5,0.5c-0.1,0.3,0.1,0.4-0.2,0.6
		c0.3,0.1,0.6-0.6,0.8-0.5s0.1,0.6,0.4,0.5c0.2,0,0.1-0.2,0.3-0.2c0.1,0,0.3,0.1,0.4,0c0.2-0.2-0.3-0.4-0.4-0.6c0.1-0.1,0.2,0,0.3,0
		c0.2,0,0.3-0.1,0.4-0.1c0,0.2-0.2,0.4-0.1,0.5c0.1,0.2,0.4-0.1,0.5-0.1l0,0c-0.1,0.4,0,0.5,0,0.5c0.1,0,0.3,0,0.3,0
		c0,0.1,0.1,0.1,0.1,0.1c0.1,0,0.1,0,0.1,0c0.1,0.1,0,0.1,0,0.1c-0.1,0.1-0.1,0.3-0.1,0.3c0,0.1,0.1,0.1,0.1,0.1s0.1,0,0.2,0l0,0
		l0,0l0,0l0,0l0,0l0,0c0,0,0,0-0.1,0.1s-0.1,0.1-0.1,0.2c-0.1,0.1-0.2,0.2-0.3,0.3c-0.1,0-0.2,0.1-0.3,0.2c-0.7,0.4-0.6,1.2-0.4,1.7
		c0,0.1,0,0.2,0,0.3c-0.1,0.3,0,0.7,0,0.8c0,0.3,0,0.6,0,0.6l0,0c0,0.3,0.2,0.5,0.3,0.5c0.1,0.1,0.2,0.2,0.2,0.2c0,0.1,0,0.1,0,0.1
		c0,0.3,0,0.4-0.1,0.6v0.1c0,0,0-0.1,0.1-0.1h0.1c0-0.1,0.1-0.3,0.1-0.4c0,0,0-0.1,0-0.2c0,0,0-0.1-0.3-0.3c0,0-0.2-0.2-0.2-0.4
		c0,0,0.1-0.3,0-0.6c0,0-0.1-0.5,0-0.7c0,0,0-0.3,0-0.4c0,0-0.4-1.1,0.4-1.5c0,0,0.2-0.2,0.3-0.2c0,0,0.2-0.3,0.3-0.3
		c0,0,0.1-0.1,0.2-0.2l0,0c0,0,0.1,0,0.1-0.1s0-0.1,0-0.1l0,0c0.1,0.1,0.1,0.2,0.1,0.3l0,0c0,0.1,0,0.2,0,0.3l0,0l0,0l0,0
		c0,0,0,0.1-0.1,0.1l0,0C47,25.8,46.7,26,46.8,26c0-0.1,0.1-0.1,0.1-0.2c0,0.1-0.1,0.1-0.1,0.2l0,0l0,0l0,0c0.1,0,0.3-0.1,0.4-0.1
		c0.1,0,0.1,0,0.2-0.1c-0.1,0-0.1,0-0.2,0.1c0.1,0,0.1,0,0.2-0.1c0.1,0,0.1,0,0.1,0c0.1,0,0.1,0.1,0.1,0.2h0.1c0,0,0,0,0-0.1
		s0.1-0.1,0.1-0.2s0.1-0.1,0.2-0.2c0.1,0,0.1-0.1,0.1-0.1H48h0.1c0-0.1-0.2,0-0.3,0l0,0c-0.1,0-0.2,0.1-0.3,0.1l0,0
		c-0.1-0.1-0.1-0.3-0.2-0.4c0-0.1-0.1-0.2-0.1-0.3v-0.1l0,0l0,0v0.1c0,0.1,0.1,0.2,0.1,0.3c0-0.1,0-0.2-0.1-0.3c0,0,0.1-0.2,0.1-0.3
		c0-0.2-0.1-0.2-0.1-0.2l0,0c0.2,0,0.5-0.5,0.5-0.6l0,0l0,0l0,0l0,0l0,0l0,0l0,0l0,0l0,0l0,0c0,0,0,0-0.1,0
		c-0.1,0.1-0.2,0.1-0.2,0.1l0,0c0,0,0,0,0-0.1s0.1-0.2,0.1-0.2h-0.1c0,0,0.1-0.1,0-0.1c0,0,0,0.1-0.1,0.1v-0.1c0-0.1,0-0.1-0.1,0
		l0,0c0,0.1,0,0.2,0,0.2l0,0c0,0,0,0,0.1,0.1l0,0c0,0,0,0-0.1-0.1l0,0l0,0c0,0-0.1-0.1-0.1-0.2s0.1-0.1,0.1-0.1l0,0
		c0,0,0.1,0,0.1-0.1l0,0c0,0,0-0.1-0.1-0.1l0,0c0,0,0-0.1-0.1-0.1c0,0-0.1,0-0.1,0.1l-0.1,0.1l0,0l0,0c-0.1-0.1,0-0.3,0-0.4l0,0H47
		h0.1H47h-0.1l0,0l0,0l0,0c0.1-0.1,0.2-0.2,0.3-0.2c0,0,0.1,0,0.2,0l0,0h0.1l0,0c0,0,0,0,0.1,0c0.1,0.1,0.2,0.2,0.3,0.2
		C48,22.9,48,23,48.1,23c0,0.1,0.1,0.3,0.2,0.2l0,0c0,0,0,0,0-0.1l0,0l0,0l0,0l0,0l0,0c0,0,0,0.1,0,0.2s-0.1,0.2-0.1,0.3
		c0,0.1,0,0.2,0.1,0.3c0,0.1,0,0.2,0,0.2c0,0.1,0,0.2,0.1,0.3c0,0.1,0.1,0.2,0.2,0.3c0.1,0.1,0.1,0.1,0.2,0.1c0,0,0.1,0,0.2,0.1
		c0,0,0.2,0.1,0.3,0c0,0,0.1,0,0.2,0.1c0,0,0,0,0.1,0c0,0,0,0,0.1,0h0.1h0.1c0.1,0,0.1,0.1,0.2,0.2l0,0l0,0l0,0v0.1l0,0l0,0
		c0,0,0,0,0,0.1l0,0l0,0l0,0l0,0c0,0,0,0,0,0.1l0,0c0,0,0,0.1,0.1,0.1l0,0l0,0v0.1l0,0v0.1c0,0.1,0.1,0.3,0.1,0.5c0,0,0,0,0,0.1v0.1
		c0,0.1,0,0.1,0,0.2c0,0,0.1,0.3,0.1,0.7c0,0,0.1,0.2,0.1,0.6c0,0,0,0.1,0.1,0.2c0,0,0,0.1,0.1,0.3c0,0,0.1,0.2-0.1,0.2
		c0,0-0.1,0.1-0.2,0.2c0,0,0,0.1-0.1,0.2s-0.2,0.3-0.4,0.4h-0.1c0,0-0.3,0.3-0.4,0.5c0,0,0.1,0.4,0.1,0.7c0,0,0.1,0.1,0.1,0.2
		c0-0.1-0.1-0.1-0.1-0.1c-0.1,0-0.3-0.1-0.5-0.1c-0.3-0.1-0.6-0.2-0.9-0.2c-0.1,0-0.2,0-0.2,0l0,0c0,0,0,0-0.1,0c0,0,0,0,0.1,0l0,0
		l0,0c-0.1,0.1-0.3,0.1-0.3,0.2c0,0,0,0,0.1,0c0,0-0.1,0-0.1,0.1l-0.1,0.1l0,0l0,0l0,0c0,0,0,0-0.1,0l0,0h-0.1h-0.1
		c-0.1,0-0.3,0.1-0.4,0.1c0-0.1,0-0.2-0.1-0.2c-0.2,0-0.4-0.1,0.1-0.2c0.4-0.1,0.6-0.1,0.5-0.2l0,0c-0.1,0-0.1,0-0.2,0
		c-0.2,0-0.3,0.1-0.5,0c-0.1,0-0.1-0.1,0.1-0.1c0,0,0,0-0.1,0s-0.1-0.1-0.2-0.1l0,0l0,0l0,0c0,0-0.1-0.1,0.2-0.1l0,0
		c0.2,0,0.7,0,0.7,0.1c0.1,0,0.2,0,0.3,0h0.1c-0.1,0-0.1-0.1-0.2-0.1c-0.1,0-0.2-0.1-0.4,0l0,0l0,0l0,0V30l0,0c0,0,0,0,0-0.1l0,0
		l0,0c0,0,0,0,0-0.1l0,0c0,0,0,0,0-0.1l0,0c0,0,0,0,0-0.1l0,0v-0.1l0,0v-0.1c0.1-0.1,0.1-0.2,0.2-0.3c0,0,0.1-0.1,0.1-0.2
		s-0.1,0-0.2-0.1c0,0,0,0,0-0.1l0,0l0,0l0,0l0,0h-0.1H47c-0.1-0.1-0.1-0.2,0-0.3c0-0.1,0.2-0.2,0.2-0.3c0.1-0.1,0.1-0.2,0.1-0.3
		c0-0.1,0-0.1-0.1-0.1s-0.1-0.1-0.2-0.1l-0.1,0.1c0,0-0.1,0-0.1,0.1c0-0.1,0.1-0.2,0.2-0.2c0.1-0.1,0.1-0.2,0.2-0.2
		c0.1-0.1,0.2-0.2,0.4-0.3l0.1-0.1c0.1-0.1,0.3-0.2,0.2-0.3c0-0.1,0-0.3-0.1-0.3v0.1v-0.1c0,0.2,0,0.3-0.1,0.4s-0.2,0.2-0.4,0.3l0,0
		h-0.1h-0.1c-0.1,0-0.1,0-0.2,0h-0.1h-0.1c0,0.1-0.3-0.2-0.3-0.4l0,0c0-0.3,0-0.4,0.1-0.7l0,0l0,0c0,0-0.1,0-0.1,0.1
		s-0.1,0.3-0.2,0.4c-0.1,0.3,0,0.7,0,1c0-0.3,0-0.6,0.1-0.9v-0.1v0.1c-0.1,0.3-0.1,0.6-0.1,0.9c0,0.1-0.1,0.2,0,0.3l0,0
		c0,0.1,0.1,0.2,0,0.3c-0.3,0.7,0.1,0.4,0.2,0.6l0,0c0.1,0.2,0.1,0.3,0,0.4s-0.1,0.3-0.1,0.4c0,0.2,0,0.6,0.3,0.6c0.1,0,0.1,0,0-0.1
		c0,0-0.1-0.1-0.1-0.2s0.1-0.3,0.1-0.4v-0.1c0,0-0.1-0.1,0-0.1s0.1,0,0.2,0.1c0,0,0,0,0,0.1v0.1c0,0-0.1,0-0.1,0.1s0,0,0.1,0
		s0.1,0.1,0.1,0.2l0,0v0.1c0,0,0,0.1-0.1,0.1l-0.1,0.1l0,0l0,0l0.1,0.1l0,0l0.1,0.1l0,0c0,0-0.1,0-0.1-0.1c-0.1,0-0.1,0-0.2,0
		c-0.1,0-0.1,0-0.2,0c0,0,0,0-0.1,0c0,0,0,0-0.1,0l0,0l0,0c0,0,0,0-0.1,0l0,0H46c0,0,0,0,0.1,0l0,0c-0.1,0-0.1,0-0.2,0l-0.1,0.1l0,0
		c0,0,0,0,0,0.1l0,0l0,0c0,0,0,0,0,0.1c0,0.2,0,0.3,0,0.3c0.1,0.4,0,0.9,0,0.9c0,0.7,0,0.9,0.1,1c0,0.1,0,0.2,0,0.3s0,0.2,0.1,0.2
		h0.1l0,0l0,0l0,0v-0.1l0,0l0,0h0.1l0,0l0,0l0,0l0,0l0,0l0,0h0.1l0,0h-0.1l0,0l0,0l0,0l0,0h-0.1c0,0.2,0,0.4,0,0.5
		C46,34,45.9,34.5,46,34.9c0,0.1,0,0.2,0,0.3s0,0.1,0,0.2c0,0.2,0.1,0.5,0.1,0.7c0,0.1,0,0.2,0.1,0.3c0,0.1,0,0.1,0,0.2
		c0,0.1,0,0.1,0,0.2v0.1l0,0c0,0.1,0,0.1,0,0.2l0,0c0,0.1,0,0.1,0,0.2c0,0.1,0,0.1,0,0.2c0,0.4-0.1,0.6-0.4,0.9
		c-0.2,0.2-0.4,0.4-0.4,0.7c0.1,0,0.1-0.1,0.2-0.1c0.1,0,0.1-0.1,0.2-0.1c0.1,0,0.1-0.1,0.2-0.1c0.1,0,0.1-0.1,0.2-0.1
		c0,0,0.1,0,0.1-0.1h0.1l0,0l0,0l0,0c0,0,0,0,0.1,0h0.1c0,0,0.1,0,0.2,0c0.1,0,0.1,0,0.2,0c0,0.1-0.2,0.3-0.2,0.3
		c-0.1,0-0.2,0.1-0.2,0.1c-0.1,0.1-0.2,0.1-0.2,0.1l0,0h0.1h0.1h0.1c0.2,0,0.2-0.2,0.3-0.3c0.2-0.2,0-0.7,0-1
		c-0.1-0.4-0.1-0.9-0.1-1.3c0-0.1,0-0.3,0-0.4c0-0.1,0-0.2,0-0.3c-0.1-0.2-0.2,0.3-0.3,0.3c-0.2,0,0-1,0.2-0.8c0.1,0.1,0,0.1,0.1,0
		l0.1-0.1l0,0c0,0,0,0,0-0.1V35h0.1h0.1c0,0,0.1-0.1,0.1,0s0,0.2,0,0.2c0,0.1,0,0.1,0,0.2c0,0.1-0.1,0.2-0.1,0.2
		c0,0.2,0.2,0.2,0.3,0.3s0,0.4,0,0.6c0,0.2-0.1,0.4-0.1,0.6c0,0.2,0,0.5,0.1,0.7c0,0.1,0,0.2,0.1,0.4c0,0.1,0,0.2,0.1,0.3
		c0,0.1,0,0.1-0.1,0.1c0,0-0.1,0-0.2,0c-0.1,0.1,0.4,0.2,0.1,0.4c-0.1,0.1-0.3-0.1-0.4,0c-0.1,0.1-0.1,0.1-0.2,0.1
		c-0.1,0-0.1-0.1-0.2-0.1c-0.1,0-0.1,0.1-0.2,0.1c0,0,0,0-0.1-0.1l0,0l0,0v0.1l0,0l0,0h0.1c0.1,0,0.2,0,0.2,0c0.1,0,0.1,0,0.1,0
		c0.2,0.1,0.3-0.1,0.3-0.1c0.1-0.1,0.3-0.1,0.3-0.1c0.3,0,0.3-0.1,0.3-0.1c0.1-0.1,0.1-0.1,0.1-0.1l0,0l0,0l0,0l0,0l0,0
		c0.1,0,0.1,0.1,0.2,0.2c0.1,0.1,0.2,0.2,0.4,0.3c0.2,0,0.4,0,0.3-0.2c-0.1,0-0.3-0.1-0.3-0.2c0.2-0.1,0.4,0.2,0.6,0.2
		c-0.1-0.1-0.1-0.1-0.1-0.2c0.1-0.1,0.2,0,0.4,0c0,0,0,0,0.1,0c0,0,0,0.1,0.1,0.1l0,0h0.1c0.2,0,0.2,0.1,0.2,0.1l0,0l0,0l0,0l0,0
		c0,0,0,0,0.1,0l0,0l0,0l0,0l0,0l0,0l0,0l0,0l0,0l0,0l0,0l0,0v0.1v0.1l0,0l0,0c0.3,0,0.5-0.3,0.5-0.3c0.1-0.2-0.2-0.6-0.2-0.6l0,0
		l0,0l0,0l0,0l0,0l0,0l0,0l0,0c0,0-0.1,0-0.1-0.1l0,0l0,0c0-0.1,0-0.1-0.1-0.2l0,0c0-0.1-0.1-0.1-0.1-0.1v-0.1l0,0c0,0,0,0,0-0.1
		l0,0l0,0v-0.1l0,0l0,0c0,0,0,0,0-0.1l0,0c-0.1-0.4-0.1-0.9-0.1-1l0,0c0,0,0,0,0-0.1l0,0h5v-0.3c-0.2,0,0,0-0.1,0
		c-0.2,0-0.4,0-0.6,0c-0.4,0-0.8-0.1-1.3-0.1c-0.3,0-0.5,0.1-0.8,0.1s-0.6,0-0.9,0c-0.4,0-0.9,0-1.3,0V36c-0.1-0.4-0.2-0.7-0.3-0.9
		c0.1,0.2,0.2,0.5,0.3,0.8c-0.1-0.3-0.1-0.5-0.3-0.8l0,0l0,0l0,0V35l0,0l0,0c0-0.1-0.1-0.1-0.1-0.2l0,0l0,0c0-0.2-0.2-0.3-0.2-0.3
		C49,34.3,49.1,34,49.1,34c0-0.1,0-0.2,0-0.3c0,0,0,0,0,0.1S49,33.9,49,34c0,0,0.1-0.1,0.1-0.2c0,0,0,0,0-0.1s0-0.2,0-0.3v-0.1
		c0-0.2,0-0.5,0-0.7c0,0.3,0,0.4,0,0.6l0,0H49c0-0.1,0-0.3,0-0.6c0,0,0.1-0.1,0-0.1v-0.1c0-0.1,0-0.2,0-0.4v0.1c0-0.1,0-0.3-0.1-0.4
		v-0.1l0,0v0.1c0,0.1,0.1,0.2,0.1,0.3v-0.1v-0.1v-0.1l0,0l0,0h0.1l0.1-0.1c0-0.1,0-0.2,0-0.3c0.1,0,0.1-0.1,0.2-0.1
		c0-0.1,0-0.2-0.1-0.2l0,0l0,0l0,0l0,0l0,0l0,0l0,0l0,0l0,0l0,0l0,0l0,0l0,0c0-0.4,0-0.8,0.1-1.1l0,0l0,0c0,0,0,0,0.1,0
		c0.2-0.1,0.3-0.3,0.5-0.4c0.1-0.1,0.2-0.2,0.2-0.2c0-0.1,0.1-0.1,0.1-0.1c0.1-0.1,0.2-0.1,0.2-0.2c0.1-0.1,0-0.3,0-0.3
		c0-0.1-0.1-0.2-0.1-0.2s0-0.1-0.1-0.1v-0.1c0-0.4-0.1-0.6-0.1-0.6c0-0.3-0.1-0.6-0.1-0.7v-0.1v-0.1l0,0l0,0c0-0.1,0-0.2,0-0.2l0,0
		c0.2-0.7,0.4-1.3,0.7-2c0.2,0,0.4,0.4,0.5,0.6c0.2,0.3,0.4,0.4,0.8,0.4c-0.1-0.3-0.2-0.3,0.1-0.5c0.2-0.1,0.4,0,0.4-0.4
		c0-0.2-0.2-0.4,0-0.6c0.1-0.2,0.4-0.1,0.5-0.3c-0.1-0.2,0.3-0.2,0.4-0.4c0.1-0.2-0.2-0.3-0.3-0.5c-0.2-0.2,0-0.4,0.1-0.9h2v18h-14
		v-3.2h5.3l0,0c0-0.1,0-0.1-0.1-0.2l0,0c-0.5,0-1.1,0-1.7,0c-0.7,0-1.4,0-2.1,0c-0.4,0-0.9,0-1.3,0c-0.1,0-0.1,0-0.2,0v-15H44.5z
		 M49.9,25.1L49.9,25.1c0.1,0.1,0.1,0.1,0.1,0.1l0,0l0,0C49.9,25.1,49.9,25.1,49.9,25.1z M47.9,22.9C47.9,22.9,47.9,22.8,47.9,22.9
		C47.9,22.8,47.9,22.8,47.9,22.9C48,22.9,48,22.9,47.9,22.9C48,22.9,48,22.9,47.9,22.9C48,22.9,48,22.9,47.9,22.9
		C48,22.9,48,22.9,47.9,22.9C48,22.9,48,22.9,47.9,22.9z M46.4,22.8L46.4,22.8L46.4,22.8L46.4,22.8L46.4,22.8z M46.6,23.5
		C46.6,23.5,46.7,23.5,46.6,23.5C46.7,23.5,46.6,23.5,46.6,23.5c-0.1,0-0.1,0-0.1-0.1l0,0C46.5,23.5,46.6,23.5,46.6,23.5z
		 M46.5,22.7L46.5,22.7C46.5,22.6,46.5,22.6,46.5,22.7C46.5,22.6,46.5,22.6,46.5,22.7L46.5,22.7z M48.3,23.4v-0.1l0,0
		C48.3,23.3,48.3,23.3,48.3,23.4z M48.2,23.2L48.2,23.2L48.2,23.2z M48.1,22.9L48.1,22.9L48.1,22.9L48.1,22.9c0.1,0,0.1,0.1,0.1,0.1
		S48.2,22.9,48.1,22.9z M49.8,23.5c0-0.2-0.2-0.6-0.3-0.8C50.1,22.7,49.9,23.1,49.8,23.5z M49.5,23.4c0,0.2,0.1,0.3,0.1,0.5l0,0
		c-0.1,0-0.2,0.5-0.4,0.7c0-0.4,0-0.9-0.1-1.3c0-0.1,0-0.5-0.1-0.6c-0.1-0.2-0.3,0-0.3-0.4c0.3,0,0.3,0,0.3,0.3s0.1,0.1,0.3,0.3
		C49.5,23,49.5,23.3,49.5,23.4z M49.1,24.8L49.1,24.8L49.1,24.8z M50.1,25.4L50.1,25.4C50.1,25.4,50.1,25.5,50.1,25.4
		C50.1,25.5,50.1,25.5,50.1,25.4C50.1,25.5,50.1,25.5,50.1,25.4C50.1,25.5,50.1,25.4,50.1,25.4L50.1,25.4L50.1,25.4L50.1,25.4z
		 M50.2,25.8C50.2,25.7,50.2,25.7,50.2,25.8L50.2,25.8C50.2,25.7,50.2,25.7,50.2,25.8v-0.1l0,0l0,0V25.8
		C50.2,25.7,50.2,25.7,50.2,25.8L50.2,25.8C50.2,25.7,50.2,25.7,50.2,25.8z M50,25.3L50,25.3L50,25.3C50,25.2,50,25.2,50,25.3
		C50,25.2,50,25.2,50,25.3L50,25.3L50,25.3z M48.8,24.7C48.8,24.7,48.7,24.7,48.8,24.7c-0.1,0-0.1,0-0.2,0l0,0l0,0l0,0l0,0
		C48.7,24.7,48.7,24.6,48.8,24.7C48.7,24.6,48.8,24.7,48.8,24.7L48.8,24.7z M48.6,24.7C48.6,24.6,48.6,24.6,48.6,24.7
		C48.6,24.6,48.6,24.6,48.6,24.7z M48.6,24.6C48.5,24.5,48.5,24.5,48.6,24.6c-0.1-0.1-0.2-0.2-0.2-0.2c0-0.1,0-0.1,0-0.2
		c0,0.1,0,0.1,0,0.2C48.4,24.4,48.4,24.4,48.6,24.6C48.5,24.5,48.6,24.5,48.6,24.6L48.6,24.6z M48.3,23.9L48.3,23.9L48.3,23.9
		L48.3,23.9z M47.9,22.7C47.8,22.7,47.8,22.7,47.9,22.7c-0.1-0.1-0.1-0.1-0.1-0.1C47.7,22.6,47.7,22.6,47.9,22.7
		C47.8,22.7,47.8,22.7,47.9,22.7z M47.5,22.5C47.5,22.4,47.5,22.4,47.5,22.5c-0.1-0.1-0.1-0.1-0.1-0.1
		C47.4,22.4,47.5,22.4,47.5,22.5C47.5,22.4,47.5,22.4,47.5,22.5z M46.7,22.4C46.7,22.4,46.7,22.5,46.7,22.4
		C46.7,22.5,46.7,22.4,46.7,22.4z M46.7,23.5L46.7,23.5L46.7,23.5L46.7,23.5z M46.9,23.9L46.9,23.9C46.9,24,47,24,47,24s0,0,0.1,0
		c0,0,0,0-0.1,0C47,24,47,23.9,46.9,23.9L46.9,23.9v-0.1C46.9,23.8,46.9,23.8,46.9,23.9z M47.2,24.5L47.2,24.5
		C47.2,24.5,47.2,24.6,47.2,24.5C47.2,24.6,47.2,24.6,47.2,24.5C47.2,24.6,47.2,24.6,47.2,24.5C47.2,24.6,47.2,24.6,47.2,24.5
		L47.2,24.5z M47,24.3L47,24.3L47,24.3L47,24.3L47,24.3L47,24.3L47,24.3z M47.1,24.1L47.1,24.1C47.1,24.1,47,24.1,47.1,24.1
		C47,24.1,47.1,24.1,47.1,24.1L47.1,24.1L47.1,24.1z M47,24.2L47,24.2L47,24.2z M47.1,24.1L47.1,24.1L47.1,24.1L47.1,24.1z
		 M46.9,24.6C46.9,24.6,46.9,24.5,46.9,24.6C46.9,24.5,46.9,24.6,46.9,24.6z M49.3,33.5c0,0.1,0,0.2,0,0.3v0.1
		c0,0.1-0.1,0.1-0.1,0.2c0,0.1-0.1,0.1-0.1,0.2c0,0,0,0,0,0.1c0.1,0.2-0.2,0.2-0.2,0.3c0,0,0,0-0.1,0v0.1c0.1,0,0.2,0,0.3,0
		s0.1,0.1,0.2,0.1c0,0,0,0,0.1,0c0,0,0.1,0,0.1,0.1c0.1,0.1,0.1,0.1,0.2,0.2l0.1,0.1c0.2,0.3,0.3,0.7,0.3,1.1c0,0.2,0,0.4,0.1,0.6
		c0,0.2,0,0.5,0.1,0.7l0,0c0,0,0,0,0,0.1l0,0l0,0c0,0.1-0.1,0.2-0.1,0.3h0.1c0,0,0,0,0.1,0c0,0,0,0,0.1,0s0.1,0.1,0.1,0.2
		c0.1,0.1,0.1,0.1,0.1,0.2c0,0.1,0.1,0.1,0.2,0.2c0.1,0.1,0.1,0.1,0.1,0.2c0,0.1,0,0.2-0.1,0.2s-0.2-0.1-0.2-0.2
		c-0.1-0.1,0-0.1-0.1-0.2c-0.2-0.1-0.2-0.3-0.2-0.5l0,0c-0.1,0-0.1,0.1-0.2,0.1l0,0c0,0,0,0-0.1,0l0,0c0,0-0.1-0.1,0-0.2
		c0-0.1,0.2-0.1,0.1-0.2c0-0.1-0.1-0.1-0.2-0.2c-0.1-0.2-0.1-0.5-0.1-0.8c0-0.2-0.1-0.3-0.1-0.5c0-0.1,0-0.3,0-0.4v-0.1v-0.1
		c0-0.1-0.1-0.3-0.1-0.4c0-0.1,0-0.2,0-0.2l0,0c-0.1-0.1-0.2,0-0.3,0c0,0,0-0.1-0.1-0.1l0,0c0,0,0,0-0.1,0c0,0,0,0-0.1,0
		S49,35,49,35l-0.1-0.1c0-0.1,0.1,0,0.1-0.1c0.1-0.1,0-0.1-0.1-0.2c0-0.1,0-0.2,0-0.3S49,34,49,33.9c-0.1,0.1-0.1,0.1-0.1,0.2
		c0,0.1-0.1,0.3-0.1,0.3l0,0l0,0l-0.1-0.1v-0.1c0-0.1,0-0.3,0-0.3c0-0.2,0-0.4-0.1-0.6v-0.1v-0.1l0,0c0,0,0,0-0.1,0h-0.1
		c0,0,0,0,0,0.1l0,0c0-0.2-0.2-0.2-0.2-0.4v-0.1l0,0v-0.1c0,0,0,0,0-0.1l0,0c0.1-0.1,0.3-0.2,0.4-0.3l0,0l0,0l0,0c0,0,0,0-0.1,0
		c0,0,0,0-0.1,0l0,0l0,0c0,0,0,0,0.1,0c0,0,0,0,0.1,0l0,0l0,0c0,0,0,0,0.1,0l0,0l0,0l0,0l0,0l0,0l0,0l0,0l0,0c0.1,0,0.3,0,0.4-0.1
		c0,0,0.1,0,0.3,0l0,0l0,0l0,0l0,0l0,0c0,0.1,0.1,0,0.1,0.1l0,0c0,0,0,0.1,0.1,0.1c0.1,0.2,0.1,0.3,0.1,0.5v0.1
		C49.3,32.9,49.3,33.2,49.3,33.5z M49.3,34.7L49.3,34.7L49.3,34.7L49.3,34.7z M49.3,34.5c0-0.1,0-0.1,0-0.2c0,0,0-0.1-0.1-0.1l0,0
		l0,0l0,0c0,0,0,0.1,0.1,0.1C49.3,34.4,49.3,34.4,49.3,34.5z M49.7,37.9C49.7,37.8,49.7,37.8,49.7,37.9
		C49.6,37.8,49.6,37.8,49.7,37.9L49.7,37.9l-0.2-0.1c-0.2-0.2-0.3-0.5-0.3-0.9l0,0l0,0l0,0l0,0c0,0.1,0.1,0.1,0.1,0.2
		c0,0.3,0,0.5,0.2,0.7l0,0l0,0C49.6,37.8,49.6,37.8,49.7,37.9C49.7,37.8,49.7,37.8,49.7,37.9C49.7,37.9,49.8,37.9,49.7,37.9
		C49.8,37.9,49.8,37.9,49.7,37.9L49.7,37.9C49.8,37.9,49.7,37.9,49.7,37.9z M47.6,34.9L47.6,34.9c-0.1,0-0.2,0-0.2,0
		c-0.1,0-0.1,0-0.1-0.1c0,0,0,0,0-0.1s0.1-0.1,0.1-0.1l0,0l0,0c0,0,0-0.1-0.1-0.1l0,0c0,0-0.1,0-0.1-0.1c-0.1-0.1,0.1-0.3,0.2-0.4
		c0-0.1-0.1-0.1-0.2-0.1c-0.1-0.1,0-0.1,0-0.2c0-0.2-0.3-0.1-0.3-0.2c0-0.1,0-0.2,0-0.2v-0.1l0,0l0,0l0,0l0,0l0,0l0,0l0,0l0,0
		c0-0.1,0-0.2-0.1-0.2l0,0l0,0l0,0c0,0,0,0,0-0.1l0,0l0,0l0,0l0,0c0,0,0,0,0.1-0.1c0.2-0.1,0.3-0.2,0.5-0.3c0.1,0,0.1-0.1,0.2-0.1
		v0.1l0,0v0.1c0,0.1,0,0.3,0,0.4h-0.1l0,0c0,0,0,0,0,0.1s0,0.1,0,0.2c0,0,0,0,0,0.1s0,0.2,0,0.2c0,0.1,0.1,0.1,0.1,0.2v0.1
		c0,0.1,0,0.2-0.1,0.2c0,0,0,0-0.1,0c0,0,0,0-0.1-0.1l0,0v0.1c0,0.1,0,0.1,0.1,0.2v0.1c0,0-0.1,0,0,0.1c0,0.1,0.1,0.1,0.2,0.1
		c0.1,0.1-0.1,0.1-0.2,0.2C47.5,34.8,47.6,34.8,47.6,34.9z M47.1,34.5c0-0.1,0-0.2,0-0.3s0.1-0.1,0.1-0.2l0,0c-0.1-0.1,0-0.2,0-0.3
		c-0.1,0-0.2-0.1-0.2-0.2c0.1,0.1,0.2,0.1,0.2,0.2c0,0.1-0.1,0.2,0,0.3l0,0c0,0-0.1,0.1-0.1,0.2C47,34.3,47,34.4,47.1,34.5
		C47.1,34.6,47.2,34.6,47.1,34.5l0.1,0.2L47.1,34.5C47.1,34.6,47.1,34.5,47.1,34.5z M46.8,33.1C46.8,33.1,46.7,33.1,46.8,33.1
		L46.8,33.1h-0.2c0,0,0,0-0.1-0.1s-0.3-0.5-0.1-0.6c0.1-0.1,0.2-0.2,0.2-0.3s-0.1,0-0.2,0c-0.1,0,0-0.2,0-0.3l0,0l0,0
		c0,0.1,0.1,0.1,0.1,0.1l0,0h0.2c0,0-0.1,0,0,0V32l0,0l0,0c0,0,0,0,0.1,0h0.1v0.1l0,0l0,0l0,0l0,0l0,0l0,0l0,0l0,0l0,0l0,0l0,0l0,0
		l0,0c0,0.1,0.2,0,0.3-0.1c0.1,0,0.1,0,0.2-0.1l0,0l0,0l0,0l0,0c0,0,0,0,0.1,0l0,0c0.1,0,0.1-0.1,0.2-0.1l0,0c0,0,0,0,0.1-0.1l0,0
		l0,0c0.1-0.1,0.2-0.1,0.4-0.2c0,0,0.1,0,0.1-0.1l0,0c0,0-0.1,0-0.1,0.1c-0.2,0.1-0.3,0.2-0.4,0.2l0,0l-0.1,0.1l0,0
		c-0.1,0-0.1,0.1-0.2,0.1C47.4,32,47.2,32,47,32.2l-0.1,0.1l0,0l0,0c0,0,0,0.1-0.1,0.1c-0.1,0.1-0.1,0.1-0.1,0.2
		C46.6,32.9,46.8,33,46.8,33.1C46.8,33,46.8,33,46.8,33.1C46.8,33,46.8,33,46.8,33.1L46.8,33.1L46.8,33.1L46.8,33.1L46.8,33.1
		L46.8,33.1z M46.2,31.6c0-0.2,0-0.5-0.1-0.7C46.2,31.1,46.2,31.4,46.2,31.6z M46.5,33.2L46.5,33.2L46.5,33.2
		C46.5,33.2,46.5,33.1,46.5,33.2C46.5,33.1,46.5,33.1,46.5,33.2L46.5,33.2C46.5,33.1,46.5,33.1,46.5,33.2L46.5,33.2L46.5,33.2
		L46.5,33.2L46.5,33.2C46.6,33.2,46.6,33.2,46.5,33.2L46.5,33.2L46.5,33.2L46.5,33.2z M46.5,31.3l0.1-0.1h0.1l0,0
		C46.7,31.3,46.6,31.3,46.5,31.3C46.5,31.4,46.5,31.4,46.5,31.3c-0.1,0.1-0.1,0.1-0.1,0.2C46.4,31.4,46.4,31.3,46.5,31.3z
		 M49.2,31.7L49.2,31.7L49.2,31.7L49.2,31.7c0-0.1-0.1-0.1-0.1-0.1s0,0-0.1-0.1l0,0l0,0l0,0c0,0,0,0,0,0.1l0,0l0,0c0-0.1,0,0-0.1,0
		s-0.2,0-0.3,0c-0.2,0.1-0.3,0.1-0.4,0.1l0,0l0,0l0,0l0,0l0,0c0-0.1-0.1-0.1-0.2-0.1c0,0,0,0-0.1,0c-0.2,0.1-0.3,0.1-0.5,0.2
		c0,0,0,0-0.1,0l0,0l0,0l0,0l0,0l0,0l0,0l0,0l0,0l0,0l0,0l0,0l0,0c0,0.1,0.1,0.1,0.1,0.1l0,0c-0.1,0-0.1,0.1-0.2,0.1l0,0l0,0l0,0
		l0,0l0,0l0,0l0,0l0,0l0,0v0.1v0.1l0,0v-0.1l0,0l0,0l0,0l0,0l0,0c-0.1,0-0.1,0.1-0.2,0.1v-0.1l0,0l0,0l0,0l0,0l0,0l0,0l0,0l0,0l0,0
		l0,0c0-0.1-0.1-0.1-0.1-0.1h-0.1h0.1l0,0h-0.1l0,0l0,0l0,0l0,0l0,0c0,0,0,0-0.1,0c0,0,0,0,0.1-0.1H47l0,0v-0.1l0,0
		c0.1,0,0.1-0.1,0.1-0.1l0,0l0,0c0.1,0,0.1-0.1,0.2-0.1l0,0l0,0c0,0,0,0,0.1,0c0,0,0,0-0.1,0c0.1,0,0.2,0,0.3-0.1l0,0
		c0.1,0,0.2-0.1,0.4-0.1h0.1c0.1,0,0.3,0,0.4,0.1c0.1,0,0.3,0.1,0.3,0.1l0,0c-0.1,0-0.3,0-0.4,0c-0.1,0-0.3,0-0.4,0
		c-0.1,0-0.2,0-0.4,0c0,0-0.1,0-0.2,0.1c0,0.1,0,0.1,0.1,0.1c0,0,0,0,0.1,0l0,0c0.1,0,0.2,0,0.3,0s0.1,0,0.2,0c0.1,0,0.1,0,0.2,0
		h0.1h0.1c0.1,0,0.2,0,0.3-0.1l0,0l0,0c0,0,0,0,0.1,0l0.1,0.1c0,0,0,0,0.1,0C49.2,31.5,49.2,31.5,49.2,31.7c0.1-0.1,0.1-0.1,0.1-0.1
		C49.3,31.6,49.3,31.7,49.2,31.7L49.2,31.7z M47.4,31.9L47.4,31.9L47.4,31.9L47.4,31.9z M46.8,31.8L46.8,31.8L46.8,31.8L46.8,31.8
		C46.8,31.9,46.8,31.9,46.8,31.8L46.8,31.8C46.8,31.9,46.8,31.8,46.8,31.8L46.8,31.8z M49.5,31.2L49.5,31.2L49.5,31.2
		C49.4,31.2,49.4,31.2,49.5,31.2L49.5,31.2L49.5,31.2L49.5,31.2L49.5,31.2L49.5,31.2z M49.5,31L49.5,31L49.5,31L49.5,31z M47.8,30.5
		C47.8,30.5,47.7,30.5,47.8,30.5L47.8,30.5C47.7,30.5,47.7,30.5,47.8,30.5L47.8,30.5L47.8,30.5z M47.7,32.7L47.7,32.7L47.7,32.7
		L47.7,32.7C47.8,32.8,47.7,32.8,47.7,32.7z M47.9,33.7c0,0.1,0.1,0.3,0,0.4C47.9,34,47.9,33.8,47.9,33.7z M47.8,34.5
		C47.8,34.4,47.8,34.4,47.8,34.5C47.7,34.4,47.7,34.4,47.8,34.5c-0.1-0.2-0.1-0.3-0.2-0.3l0,0l0,0C47.6,34.2,47.7,34.3,47.8,34.5
		C47.8,34.4,47.8,34.4,47.8,34.5C47.8,34.4,47.8,34.4,47.8,34.5c0.1,0.1,0,0.2,0,0.2s-0.1,0.1-0.2,0.1l0.1-0.1
		C47.9,34.7,47.9,34.6,47.8,34.5z M48.6,34.6C48.6,34.5,48.6,34.5,48.6,34.6C48.6,34.5,48.5,34.5,48.6,34.6
		c-0.3-0.1-0.4-0.3-0.4-0.8c0-0.2,0-0.4,0-0.5c0,0.2,0,0.4,0,0.5C48.2,34.3,48.4,34.6,48.6,34.6L48.6,34.6
		C48.6,34.5,48.6,34.5,48.6,34.6L48.6,34.6z M48.5,34.8c0,0.1,0.1,0.1,0.1,0.2C48.6,34.9,48.5,34.9,48.5,34.8z M49.8,37.8L49.8,37.8
		L49.8,37.8L49.8,37.8C49.8,37.9,49.8,37.9,49.8,37.8C49.9,37.9,49.9,37.9,49.8,37.8L49.8,37.8L49.8,37.8
		C49.9,37.9,49.8,37.9,49.8,37.8C49.8,37.9,49.8,37.9,49.8,37.8L49.8,37.8C49.8,37.9,49.8,37.9,49.8,37.8
		C49.8,37.9,49.8,37.9,49.8,37.8C49.8,37.9,49.8,37.9,49.8,37.8L49.8,37.8L49.8,37.8L49.8,37.8c0,0,0-0.1,0-0.2l0,0c0,0,0,0,0-0.1
		l0,0c0,0,0,0,0-0.1l0,0l0,0c0,0,0,0,0-0.1l0,0l0,0l0,0l0,0l0,0l0,0l0,0l0,0l0,0l0,0l0,0h0.1h-0.1c0,0,0,0,0,0.1l0,0l0,0
		c0,0,0,0,0,0.1l0,0c0,0,0,0,0,0.1l0,0C49.8,37.7,49.8,37.8,49.8,37.8z M49.4,36.1c0-0.1,0-0.2,0-0.2C49.4,36,49.4,36,49.4,36.1z
		 M49.8,38.3L49.8,38.3L49.8,38.3z M49,35.1L49,35.1c-0.3,0-0.3-0.1-0.4-0.2C48.7,35,48.8,35.1,49,35.1L49,35.1z M49.4,31.8
		L49.4,31.8L49.4,31.8C49.4,31.8,49.4,31.9,49.4,31.8C49.4,31.9,49.4,31.9,49.4,31.8L49.4,31.8L49.4,31.8
		C49.4,31.8,49.3,31.8,49.4,31.8C49.3,31.8,49.4,31.8,49.4,31.8z M49.5,31.7L49.5,31.7C49.5,31.6,49.5,31.6,49.5,31.7
		c0-0.1,0-0.1,0.1-0.1C49.5,31.6,49.5,31.7,49.5,31.7L49.5,31.7L49.5,31.7L49.5,31.7z M49.5,31.4c0-0.1,0-0.1,0.1-0.2l0,0l0,0l0,0
		l0,0C49.6,31.3,49.6,31.4,49.5,31.4C49.5,31.5,49.5,31.4,49.5,31.4z M49.6,31.2L49.6,31.2L49.6,31.2C49.6,31.1,49.6,31.1,49.6,31.2
		c0-0.1-0.1-0.1-0.1-0.1l0,0l0,0C49.6,31.1,49.6,31.1,49.6,31.2C49.6,31.1,49.6,31.1,49.6,31.2C49.6,31.1,49.6,31.2,49.6,31.2
		L49.6,31.2C49.6,31.2,49.7,31.2,49.6,31.2C49.7,31.2,49.6,31.2,49.6,31.2z M49.4,30L49.4,30c0-0.1,0.1-0.1,0.1-0.2
		C49.5,29.9,49.5,30,49.4,30z M46.7,29.1V29C46.7,29,46.7,29,46.7,29.1C46.7,29,46.7,29,46.7,29.1c0.1,0,0.2,0.1,0.3,0.2l0,0
		C47,29.2,46.9,29.1,46.7,29.1z M46.5,27.8L46.5,27.8L46.5,27.8L46.5,27.8c0,0,0.1,0.1,0.1,0.2v0.1V28
		C46.6,27.9,46.5,27.9,46.5,27.8z M46.5,28.7c0-0.1-0.1-0.3-0.1-0.4C46.4,28.4,46.4,28.5,46.5,28.7z M46.5,27.3
		c0.1,0.1,0.1,0.1,0.2,0.1h0.1h-0.1C46.7,27.4,46.6,27.3,46.5,27.3L46.5,27.3z M47,29.2C47,29.2,47.1,29.2,47,29.2
		C47.1,29.2,47.1,29.2,47,29.2c0.1,0.1,0.1,0.1,0.2,0.1l0,0l0,0C47.2,29.3,47.1,29.2,47,29.2C47.1,29.2,47.1,29.2,47,29.2
		C47.1,29.2,47,29.2,47,29.2L47,29.2C46.9,29.2,47,29.2,47,29.2z M47.1,29.4L47.1,29.4v-0.1C47,29.3,47.1,29.4,47.1,29.4z
		 M46.6,27.9c0-0.1,0.1-0.2,0.1-0.2S46.6,27.8,46.6,27.9L46.6,27.9z M46.6,28C46.7,28,46.7,28.1,46.6,28c0.1,0.1,0.1,0.1,0.1,0.1
		C46.7,28.1,46.7,28.1,46.6,28C46.7,28.1,46.7,28,46.6,28z M47.1,28L47.1,28L47.1,28L47.1,28z M47.1,28c0,0.1,0,0.1-0.1,0.2
		C47,28.1,47.1,28.1,47.1,28z M47,28L47,28L47,28C47,28,47.1,28,47,28C47.1,28,47,28,47,28z M46.8,27.6L46.8,27.6
		C46.8,27.6,46.8,27.5,46.8,27.6C46.8,27.5,46.8,27.6,46.8,27.6L46.8,27.6z M47,27.4L47,27.4L47,27.4C46.9,27.4,46.9,27.4,47,27.4
		C46.9,27.3,46.9,27.3,47,27.4L47,27.4L47,27.4L47,27.4z M46.5,27.6C46.5,27.6,46.5,27.7,46.5,27.6c0,0.1,0,0.1,0,0.1
		S46.5,27.7,46.5,27.6C46.5,27.7,46.5,27.6,46.5,27.6z M46.7,28.6C46.7,28.5,46.8,28.5,46.7,28.6C46.8,28.5,46.7,28.5,46.7,28.6
		L46.7,28.6L46.7,28.6z M46.7,28.7L46.7,28.7L46.7,28.7L46.7,28.7z M46.8,29C46.8,29.1,46.8,29.1,46.8,29
		C46.8,29.1,46.8,29.1,46.8,29L46.8,29L46.8,29z M47.7,26.9L47.7,26.9L47.7,26.9L47.7,26.9z M47.8,26.8L47.8,26.8L47.8,26.8
		L47.8,26.8z M47.8,26.7C47.8,26.7,47.8,26.6,47.8,26.7C47.8,26.6,47.8,26.7,47.8,26.7L47.8,26.7z M46.4,26.4v-0.1
		C46.5,26.3,46.4,26.4,46.4,26.4z M46.5,26.1L46.5,26.1L46.5,26.1L46.5,26.1L46.5,26.1z M46.4,28.2L46.4,28.2L46.4,28.2z M46.4,28
		c0-0.1-0.1-0.1-0.1-0.2C46.3,27.9,46.4,28,46.4,28L46.4,28z M55.9,20.9L55.9,20.9c-0.4-0.1-1-0.3-1.2-0.9c0,0,0-0.1-0.1-0.1
		c-0.2-0.8,0.3-1.7,0.5-2.3c0.3-0.7,0.2-2.1,0.2-2.1c0,2.1-0.8,3.2-0.8,3.2c-0.1,0.2-0.2,0.4-0.2,0.6l0,0c0,0.1,0,0.2,0,0.3
		c0,0.1-0.1,0.3-0.1,0.4c-0.1,0.1-0.2,0.3-0.3,0.4c-0.4,0.6-0.9,0.4-1.1,0.1l0,0c-0.1-0.2-0.1-0.6,0.3-1.2c0.5-0.9,1.5-1.9,1.5-2.6
		c0,0-0.9,1.5-1.5,2.1c0,0-0.2,0.1-0.4,0.7s-0.3,0.8-0.5,0.9l0,0c-0.1,0.1-0.2,0.1-0.3,0.2c-0.2,0.2-0.3,0.2-0.4,0.1
		c-0.4-0.3-0.2-0.4-0.1-1c0.1-0.6,0.8-1.2,1.5-1.7c0.6-0.5,1.4-2,1.5-2.2c-1.1,1.7-1.9,2.3-2.9,3.2c-0.8,0.7-0.6,1.2-0.5,1.5
		c-0.6-0.6-0.6-1.3-0.5-2.1c0.3-0.6,0.8-0.7,1.4-1.1c0.9-0.5,1.1-1.8,1.1-1.9c-0.7,1.8-1.8,1.9-2.4,2c0-0.2,0-0.4,0-0.6
		c0-0.8-0.4-1.6-0.6-2c0.7,0,2.6-0.1,4.6-0.2c0.4,0,0.9,0,1.3,0c0.5,0,0.9,0,1.3,0c1.9,0,3.9,0.1,4.6,0.2c-0.2,0.4-0.6,1.2-0.6,2
		c0,0.2,0,0.4,0,0.6c-0.6-0.1-1.6-0.2-2.4-2c0,0,0.3,1.4,1.2,1.9c0.6,0.4,1.1,0.5,1.4,1.1c0.1,0.7,0.1,1.5-0.5,2.1
		c0.2-0.3,0.3-0.8-0.5-1.5c-1.1-0.9-1.9-1.5-3-3.3c0,0.1,0.9,1.7,1.5,2.3c0.6,0.5,1.4,1.2,1.5,1.7s0.2,0.7-0.1,1
		c-0.1,0.1-0.2,0.1-0.4-0.1c-0.1-0.1-0.2-0.2-0.3-0.2l0,0c-0.2-0.1-0.3-0.4-0.5-0.9c-0.2-0.6-0.4-0.7-0.4-0.7
		c-0.6-0.6-1.5-2.1-1.5-2.1c0,0.6,1,1.7,1.5,2.6c0.4,0.6,0.3,1,0.3,1.2l0,0c-0.2,0.3-0.7,0.4-1.1-0.1c-0.1-0.2-0.2-0.3-0.3-0.4
		c-0.1-0.2-0.1-0.3-0.1-0.4s0-0.2,0-0.3l0,0c0-0.2-0.1-0.4-0.2-0.6c0,0-0.8-1.1-0.8-3.2c0,0.1-0.1,1.4,0.2,2.1
		c0.2,0.6,0.7,1.5,0.5,2.3c0,0,0,0.1-0.1,0.1C56.9,20.7,56.3,20.9,55.9,20.9L55.9,20.9z M70.7,21.3v18.6H56.3V21.3H70.7z M56.3,40.4
		h14.5v12.9c-0.3,1.2-1.2,2.7-3.8,3.6c0,0-1.6,0.9-5.5,1.1c0,0-3.8,0-5.2,1C56.3,59,56.3,40.4,56.3,40.4z M69.8,20.6
		c-0.3,0.1-0.3,0.4-0.6,0.3c-0.2-0.1,0.2-0.6,0.2-0.6c-0.2,0-0.3,0-0.5,0.4s-0.6,0.2-0.6,0.2C68,20.8,68.4,20,68.4,20
		c-0.3,0.1-0.3,0.6-0.4,0.7c-0.1,0.1-0.3,0.2-0.7,0.1c-0.4,0,0.3-1.2,0.4-1.2c0.6-0.9,1.7-0.2,2.2,0.2c0.5,0.4,1.1,0.6,1.1,0.6
		C70.6,21.1,70.1,20.6,69.8,20.6z M67.5,18.3c0,0-0.2-1,0.1-0.6c0.3,0.5,0.4,0.5,1,0.6c0.6,0.1,1.4,0.5,1.6,1.2c0,0.1-1.5-0.9-2-0.5
		c-0.1,0-0.6,0.8-0.7,0.8C67.3,20,67.9,19.4,67.5,18.3z M70.1,15.5c-0.1,0.2-0.3,0.4-0.4,0.7c-3-1.5-3.8,0.7-3.8,0.7
		c0,0.3-0.4,0.2-0.5,0.1c0-0.2-0.1-1.3,0.5-1.8c-0.2,0.1-0.7,0.6-0.5,1.8c-0.1,0.1-0.3,0.1-0.3,0.1c-0.1-0.2-0.5-1.3,0.3-2.2
		c-0.1,0.1-0.9,0.9-0.4,2.4c-0.1,0.2-0.4,0.2-0.5,0.2c-0.5-1.1-0.2-2-0.2-2.2c-0.4,0.9-0.1,1.9,0.1,2.2c-0.1,0.3-0.4,0.3-0.5,0.2
		c-0.6-0.7-0.4-1.6-0.3-2c-0.3,1.1,0,1.8,0.2,2.1c0,0.1,0.1,0.3,0.1,0.4c-0.3-0.2-1.4-1.2-0.7-3c-0.1,0.1-1.1,2,0.7,3.2l0,0
		c0,0.1,0.2,0.4,0.3,0.5c-0.4-0.1-2.2-0.9-1.6-3.6c-0.1,0.1-1,2.5,1.6,3.8l0,0c0.2,0.2,0.6,0.3,0.6,0.3c0,0.3-0.4,0.4-0.7,0.4
		c-1.6-0.7-2-2.5-2-2.7c0.2,1.7,1.1,2.6,1.5,2.8c1.3,0.7,1.7,0.4,1.7,0.4c0.5-0.2,0.1-1,0.1-1c0.3,0,0.5,0.5,0.5,0.5
		c0.2-0.1-0.1-0.7-0.1-0.7c0.8,0.2,0.2,1.4,0.2,1.4c1.5-0.7,0.6-2.1,0.6-2.1c-0.1,0.2-0.5,0.4-0.5,0.4c-0.3,0.2-0.4-0.4-0.4-0.4
		c0-0.6,0.6-0.7,0.6-0.7c-1.4-0.4-1,1.3-1,1.3c-0.2,0-0.4-0.4-0.4-0.4c-0.1,0.4,0,0.8,0,0.8c-1.3-1.3,0.1-2.1,0.1-2.1
		c1.7-0.6,2.1,1,2.1,1c0.5,2.6-2.2,2.8-2.2,2.8c-0.9,0.1-1.7-0.3-2.2-0.7c0,0.4-0.7,0.2-0.7,0.2c-0.2,0.6-1.2,0.4-1.2,0.4
		c0.9-0.4,0.8-1.8,0.7-2.6c-0.8-3,1.8-4.8,1.8-4.8C66.2,11.8,69.7,15.1,70.1,15.5z M47,10.9l0.1-0.6l-1.6-4.5l-0.1-0.1l0,0l-0.2-0.2
		l0,0l0,0L45.1,5l0.5-0.3l0.2,0.2l0.4-0.2V4.4l0.6-0.1L47,4.5l0.5-0.1V4.1L48.1,4l0.2,0.5v0.1v0.3l0,0V5l0.5,1.9l0,0L49.1,7v0.2
		L49.8,7c0,0-0.1-0.3-0.1-0.4l0.5-0.2l0,0l-0.3-2l0,0l0-0.1l-0.1-0.1V3.8l0.5-0.2l0.1,0.3l0.4-0.1l0.1-0.2l0.4-0.1l0.2,0.2h0.4
		l0.2-0.4h0.5l0.1,0.4l0,0L52.6,4v0.2l0.1,2.1l0,0h0.4l0.2,0.5h0.8V6.3l0.6-0.1l-0.1-2.4l0,0l0,0l-0.1-0.3l0,0V3.1l0,0L55.1,3
		l0.1,0.2l-0.1,0.1l0,0l0.4-0.1l0.1-0.3l0,0l0,0h0.2H56l0,0l0.1,0.3l0.6,0.1l0,0V3.2L56.8,3l0.6,0.1v0.1v0.4l0,0l-0.1,0.3l0,0l0,0
		l-0.1,2.4h0.6v0.5l0.8,0.1l0.1-0.6h0.4l0,0l0.2-2V4.1l0,0l-0.1-0.3l0,0l0.1-0.4h0.5l0.1,0.3h0.4l0.2-0.2l0.4,0.1L61,3.8l0.4,0.1
		l0.1-0.3L62,3.8v0.4l-0.1,0.1l-0.1,0.1l0,0l0,0l-0.3,2c0,0,0.1,0,0.3,0.1c0.1,0.1,0.3,0.1,0.3,0.1L62,7l0.7,0.2l0.1-0.3l0.3-0.1
		l0.5-1.9V4.8l0,0V4.5V4.4l0.2-0.5L64.4,4v0.3l0.5,0.1L65,4.3l0.5,0.2v0.3L65.9,5l0.2-0.2l0.5,0.3l-0.1,0.5l0,0l0,0l-0.2,0.2l0,0
		v0.1l-1.6,4.4l0.1,0.6c0,0-0.1,0.3-0.2,0.5l-0.7,1.9c-1.1,0.4-1.8,1.4-2,1.8C61,15,59.4,15,56.7,14.9H55c-2.6,0.1-4.2,0.1-5.1,0.2
		c-0.8-1.3-1.7-1.6-2-1.7l-0.7-1.9C47.1,11.2,47,10.9,47,10.9z M48.5,13.7c0,0,2.6,1.8,1.8,4.8c-0.1,0.7-0.2,2.1,0.7,2.6h-0.5
		c-0.3,0-0.5-0.2-0.6-0.4c0,0-0.7,0.2-0.7-0.2c-0.5,0.4-1.2,0.7-2.2,0.7c0,0-2.6-0.1-2.2-2.8c0,0,0.5-1.6,2.1-1c0,0,1.5,0.8,0.2,2.1
		c0,0,0.2-0.5,0-0.8c0,0-0.2,0.4-0.4,0.4c0,0,0.3-1.7-1-1.3c0,0,0.7,0.1,0.6,0.7c0,0-0.1,0.6-0.4,0.4c0,0-0.3-0.2-0.5-0.4
		c0,0-0.9,1.4,0.6,2.1c0,0-0.5-1.1,0.2-1.4c0,0-0.3,0.6-0.1,0.7c0,0,0.2-0.5,0.5-0.5c0,0-0.3,0.8,0.1,1c0,0,0.4,0.3,1.7-0.4
		c0.5-0.3,1.4-1.1,1.5-2.8c0,0.2-0.4,2-2,2.7c-0.3,0-0.7-0.1-0.7-0.4c0,0,0.4-0.1,0.6-0.3l0,0c2.6-1.3,1.7-3.7,1.6-3.8
		c0.6,2.6-1.2,3.4-1.6,3.6c0.1-0.2,0.3-0.4,0.3-0.5l0,0c1.8-1.1,0.7-3.1,0.7-3.2c0.8,1.8-0.3,2.8-0.7,3c0-0.1,0.1-0.3,0.1-0.4
		c0.2-0.3,0.6-1,0.2-2.1c0.1,0.4,0.2,1.3-0.3,2c-0.1,0-0.4,0.1-0.5-0.2c0.1-0.3,0.5-1.3,0.1-2.2c0.1,0.2,0.3,1.1-0.2,2.2
		c-0.1,0-0.4,0-0.5-0.2c0.6-1.4-0.3-2.3-0.4-2.4c0.8,0.9,0.4,2,0.3,2.2c-0.1,0-0.2,0.1-0.3-0.1c0.1-1.2-0.3-1.7-0.5-1.8
		c0.6,0.5,0.5,1.5,0.5,1.8c-0.1,0.1-0.5,0.2-0.5-0.1c0,0-0.8-2.2-3.8-0.7c-0.1-0.3-0.3-0.6-0.4-0.7C42.1,15.1,45.6,11.8,48.5,13.7z
		 M40.6,14.7c0,0,2,1.1,1.7,2.7c0,0-0.4-0.3-0.6-0.3c0,0,0.3,0.9-0.3,1.5c-0.7,0.6-0.8,0.8-0.8,1.1c0,0.3-0.5-0.5-0.5-0.5
		s-0.6-1.3,0-2c0,0-0.3,0-0.6,0.3S39,17.9,38.8,18c0,0,0.9-3.6-1.5-2.8C37.3,15.1,38.4,13.5,40.6,14.7z M39.6,47.3
		c0.1,1-0.4,3.6-0.4,3.4c0-0.3,0.1-2.9,0.1-3.5s-0.1-1.7-0.3-2.9c-0.3-1.2-0.1-2.3,0.2-2.9c0.2-0.6,0.3-1.2,0.3-1.3
		c0,0,0.5,0.4,0.2,1.2l0,0c-0.4,0.8-0.2,1-0.2,1c-0.1-0.3,0.1-0.7,0.3-1s0.3-0.7,0.3-0.7C40.3,41.2,40,42,40,42
		c-0.3,0.6-0.2,0.9-0.2,0.9c0.2-1.1,1-1.2,1-1.2c-0.1,0.9-0.6,1.8-0.9,2.8C39.4,45.5,39.5,46.3,39.6,47.3z M38.6,46.4
		c0-0.2-0.3-2.4-0.4-3.5c-0.1-1.1-0.3-2-0.4-2.4c-0.1-0.4-0.3-1.1-0.5-2.2C37,37.2,37.6,36.4,38,36c0.4-0.4,0.7-0.7,0.8-1.1
		c0.2-0.4-0.1-1-0.1-1c0.3,0,0.5,0.6,0.6,1s0.3,0,0.3-0.3c0-0.2-0.2-0.4-0.4-0.8c-0.2-0.4,0.4-1.1,0.4-1s0.1,0.2,0.2,0.3
		c0.1,0.1,0.1,0.5,0.1,0.5c0.1-0.1,0.1,0,0-0.5s0.6-1.8,0.6-1.9c0,0,0,1.6,0,1.9s-0.1,0.6-0.2,1c0,0.3,0,0.6,0,1.1
		c0.1,0.5-0.6,1.2-0.9,1.6c-0.3,0.3,0,0.4,0.2,0.4s0.3-0.4,0.4-0.5c0.1-0.1,0.3-0.5,0.3-0.5s0,0.1,0.1,0.7c0,0.6-0.6,1-0.8,1.2
		S39,38.7,39,38.7c0.2-0.1,0.8-0.1,1,0.2c0.1,0.4,0,0.3-0.4,0.1s-0.5,0-0.9,0.4c-0.5,0.4-0.5,1.1-0.4,2.1s0.2,1.6,0.5,3.3
		c0.2,1.6-0.2,3.6-0.2,3.6C38.6,48.6,38.6,46.6,38.6,46.4z M40.5,21c-0.1-0.5-0.8-0.7-1.3-1s-0.3-1.3-0.3-1.1c0.1,0.5,0.2,0.7,0.9,1
		C40.5,20.2,40.5,21,40.5,21z M36,21.4c-0.4-0.5-1-1.6-1.3-1c0,0-0.1-0.7,0.3-0.7c0.3,0.2,1.4,0.8,3.1,3.3c-0.1-0.2-1-1.9-2.4-3.1
		c0,0-0.5-0.4-0.6-1.3l0,0l0,0c0,0,0-0.3,0-0.4c0,0,0,0.1,0,0.2c0-0.4-0.2-1-0.3-1.1c0.1,0.1,0.5,0.5,0.6,0.8c0-0.1,0-2.6,1.7-2.8
		c0,0,1.2,0,1.1,0.9c0,0-0.1,0.5-0.4,0.4c0,0-0.9-0.4-1-0.5c0,0,0.1,0.3,0.5,0.4c0,0,0.9,0.3,0.8,0.6c0,0-1.8-0.8-2.2,0.5
		c0,0-0.5,0.9,1.1,3.3c0,0,0.9,1.1,1.3,1.7c0.2,0.3,0.4,0.5,0.6,0.7c-0.9-1.2-2.6-3.6-2.7-4.8c0,0,0-0.9,0.4-0.6
		c0.4,0.2,0.2,0.3,0.2,0.7c0,0.4,0.3,2,1,2.6c0,0,1.1,1.2,1.6,1.6c-0.1-0.1-1.1-1.4-1.5-1.8c-0.4-0.5-0.8-1.5-0.6-1.9
		c0,0,0.2-0.3,0.4,0.2c0,0,0.4,1.3,0.7,1.6c0.3,0.3,0.9,0.9,1.3,1.2c-0.1-0.1-0.8-0.9-1.1-1.2c0,0-0.6-0.5-0.8-2c0,0-0.1-0.7-0.4-1
		c0.1,0,0.6,0.4,0.7,1c0.1,0.7,0.4,1.1,1.2,1.5c0,0.1,0.8,0.4,1,1v6.3c0,0-0.2-1.3-0.6-1.9c-0.4-0.6-1.7-1.8-2.2-2.5
		C37.2,22.6,36.4,21.9,36,21.4z M37.2,27.2c0,0,1.1-0.7,1.9,0.3c-0.2-0.3-0.9-1.2-1.5-1.2c0,0,0.9-0.5,2.2,1.2
		c-0.1-0.2-0.7-1.2-1.6-1.6c0,0-0.7-0.4-0.7-0.8c0,0,1.5,0.3,2.4,1.8c0-0.1-0.4-1-2-1.9c0,0-0.8-0.4-0.7-0.7c0,0,0.5-0.4,0.8-0.1
		c0-0.1-0.4-0.5-1.3-0.5c0,0,0.9-0.4,1.9,0.8c0,0,1.3,1.5,1.4,1.9c0,0,0.4,0.9,0.4,1.4c0,0.1-0.4,0-0.5,0.5s-0.5,1.4-0.6,1.5
		C39.2,29.9,39.1,26.9,37.2,27.2z M35.7,40.3c-0.5-1.7,0-2.9,0.1-3.2c0-0.3-0.2-0.8-0.2-0.8c0.2-0.1,0.5,0.3,0.5,0.3
		c0.2-0.9-0.4-1.2-0.4-1.2c0.4-0.3,1.1,0.4,1.1,0.4c0.2-0.9-0.5-2.1-0.5-2.1c0.5-0.1,1,1.2,1,1.2c0-0.3,0-1.5,0.2-2.1s0-1.7,0-1.7
		c0.5,0,0.8,0.9,0.8,0.9c0.2-0.3,0.2-1.1,0.2-1.7s-0.3-1.3-0.3-1.4C38.6,29,39,30,39,30c0.1,0.4-0.3,1.6-0.3,1.6
		c0.3-0.5,0.4-1.4,0.4-1.4c0.2-0.1,0.5-0.5,0.7-1.3s0.6-1,0.6-0.9c-0.2,0.2-0.1,0.5,0,1.1s0.2,1.7,0.2,1.7c0,0.9-1.8,3-1.8,3
		c-0.4,0.4-0.8,0.9-1.1,1.3c0-0.4,0.1-1,0.6-1.7c0.9-1.2,0.9-1.1,1.2-1.6c0.6-0.9,0.5-1.5,0.5-1.5c-0.1,0.7-0.9,1.8-0.9,1.8
		c-0.5,0.6-1.9,2-1.6,3.2c-0.8,1.2-1,2.2-1,2.2c-0.5,2.9,0.8,5,0.8,5c0.3,0.7,0.6,2.2,0.6,2.2c0.4,2.1,0,5.1,0,5.1
		c0-0.1-0.2-0.4-0.2-0.4c0.7-5.2-1-7.4-1.4-7.9C36,41,35.7,40.3,35.7,40.3z M36.7,45.1c0,0-0.8-1.2-1.2-0.9c0,0-0.3,0.2-0.1,0.4
		c0,0-0.4,0.2-0.2-0.4c0.2-0.6,0.4-0.6,0.6-0.6c0,0-0.4-0.4-0.1-0.5c0,0,0.5,0,0.6,0.1c0,0-0.1-0.2-0.1-0.3c0,0,0.9,0.2,1.1,0.5
		c0,0,0.3,0.7,0.5,1.4c-0.4-0.7-0.8-1.2-1-1.3c0.3,0.4,0.7,1.2,1,1.8c0,0.4,0.1,0.7,0.1,1.3c-0.4-1.4-1.1-2.2-1.2-2.3
		c0.7,0.9,1.1,1.9,1.2,2.7c0,0.6,0,1.3-0.2,2.4c0,0-0.2-0.3-0.3-0.4C37.4,48.9,37.5,46.1,36.7,45.1z M35.3,49.9
		c-0.1,0,0.8-1.3,1.8-0.7l0.3,0.2v-0.3c0,0,0.4,0.4,0.5,0.8c0,0,0.2,0.5,0.3,0.8s0.1,0.6,0.2,0.9c0.1,0.3,0.3,0.8,0.2,1
		c-0.1,0.3-0.1,0.6-0.2,0.9c-0.1,0.2-0.1,0.4-0.3,0.6c-0.2,0.2-0.3,0.3-0.2,0.1c0-0.2,0.3-0.8,0.3-1.1S38.1,52.8,38,53
		c-0.1,0.2-0.3,0.4-0.3,0.6c-0.1,0.2-0.3,0.4-0.1,0.5c0,0-0.7,0.4-0.8,0.7c0,0-0.1-0.3,0.1-0.6c0.2-0.3,1.2-1.9,1.1-2.5
		c0,0-0.4,1.2-1,2.1c0,0-0.2,0.3-0.2,0.4c0,0.1,0-0.5,0-0.8s0.2-0.6,0.3-1c0.1-0.5,0.1-0.9,0.2-1.4c0.1-0.5,0-0.6,0-0.6
		s0.5,0.7,0.8,0.7c0,0-0.5-0.3-0.7-0.9C37.3,50.4,36.7,48.8,35.3,49.9z M38,62.4c-0.8-0.8-0.8-0.9-1-1.3c-0.2-0.4-0.3-0.6-0.4-0.8
		c-0.2-0.2-1.3-2.2-0.9-3.6c0.3-1.4,0.4-1.3,0.5-1.7s0.4-1,0.3-1.4c0,0,0.3,1.2,0.2,1.7c0,0,0.6-0.8,1.1-1c0,0-0.1,0.9-0.2,1.1
		c-0.1,0.3-0.2,0.8,0.1,0.6c0.3-0.3,0.6-0.9,1-1.1c0.3-0.1,0.5-0.2,0.5,0s0.1,0.4-0.1,0.5c-0.2,0.1-0.3,0.2-0.5,0.4
		c-0.1,0.2-0.3,0.3-0.3,0.4c0,0.1,0.5-0.1,0.6-0.2c0.1-0.1,0.8-0.9,1.1-1c0.2-0.1,0.5-0.1,0.7,0.1c0,0-0.8,0.3-0.8,0.7
		c0,0-1.9,0.3-2.9,2.2c0.3-0.3,1.8-2.3,3.9-2.1c0,0,1.7,0.2,2.4,1.7c0,0,0.8,2.2-0.8,3.3c0,0-1.2,0.8-2.4,0.7c0,0-1.4-0.2-1.5-1.2
		c0,0-0.3-1.1,0.5-1.6c0,0,1.7-0.9,2.2,0.3c0,0,0.4,0.8-0.2,1.1c0,0-0.3,0.2-0.6,0.1c0,0-0.2-0.9-0.7-0.7c0,0-0.8,0.5,0,1.2
		c0,0-0.5-0.8,0-0.9c0,0,0.3-0.1,0.4,0.4c0,0,0.1,0.7,0.8,0.7c0,0,2.6-0.4,1.7-3.3c0.1,0.3,0.3,1.6-0.3,2.1c0,0-0.5-0.5-0.2-1.2
		c0,0-0.4-0.2-0.5,0.4c0,0-0.3-0.2-0.2-0.7s0-1.6-0.8-2c0,0,0.4,0.5,0.4,1.1c0,0-0.1,0.4-0.3,0.4c0,0-0.2,0-0.4-0.3
		c-0.3-0.4-0.4-0.9-1-0.7c0,0,0.5,0,0.7,0.6c0,0,0.2,0.6-0.1,0.7c0,0-0.4,0.3-0.9-0.3c0,0-0.7-1.2-1.8,0.4c0,0-1,1.5,0.1,3.1
		c0-0.1-0.6-2.3,0.4-2.9c0,0,0.7-0.5,1-0.1c0,0,0.4,0.3-0.2,0.6c0,0-1,0.6-0.7,2.1c0,0,0.1,1,0.4,1.3c0,0-0.4-0.9-0.1-1
		c0,0,0.4-0.2,0.5,0.3c0,0.1,0.1,1,0.4,1.3c0,0-0.3-1,0-1c0,0,0.5-0.2,0.6,0.4c0,0,0,1.2,1.1,1.4c0,0-0.2,0.1-0.6,0
		c-0.4-0.1-0.8-0.4-0.9-0.5C39.2,63,38.7,63.2,38,62.4z M48.3,63.9c-0.2,0.3-0.9,0.6-0.9,0.6c-1.5,0.4-2-0.6-2-0.7
		c0-0.1,0.1-0.5,0.1-0.6c-0.4,1.4-1,1.1-1,1.1c0.1-0.1,0.2-0.3,0.3-0.5s0.2-0.5,0.3-0.6c-0.2,0.2-0.5,0.7-0.5,0.7
		c-0.2,0.4-0.5,0.5-0.5,0.5c-0.3,0.2-0.7-0.2-0.7-0.2c0.3-0.2,0.7-0.5,0.7-0.6c0.3-0.4,1-1,1.2-1.1c-0.2,0.1-1.1,0.9-1.5,1.3
		c-0.5,0.4-1.2,0.5-1.2,0.5c-0.4,0.1-0.7-0.2-0.7-0.2c1.3-0.2,2.4-1.2,2.5-1.4c-0.3,0.3-1.2,0.7-1.2,0.7c-2.9,1.3-4.7,0.6-4.7,0.6
		c1.4,0.1,2.6-0.5,2.6-0.5s-1.4-0.9-0.9-1.7c0,0,0.4-0.3,0.5,0.2c0,0,0.2,1.3,1.6,1.3c0,0-1-0.3-1.4-1.2c0,0-0.2-0.4,0.3-0.3
		c0,0,0.3,0.1,0.6,0.4c0.3,0.3,1.2,0.7,2.1,0.2c0,0-1.3,0.1-1.8-0.8c0,0,0.2-0.2,0.6,0c0.3,0.2,1.6,0.7,2.1,0.3c0,0,0-0.1-0.3-0.1
		c-0.1,0-0.7,0-1.1-0.1c-0.3-0.1-0.5-0.2-0.5-0.3s0.5-0.1,0.8-0.1s1.4,0.2,2.1,0c0.6-0.2,0.8-0.4,0.6-0.5c-0.2,0-0.9,0.2-1.4,0.2
		s-1,0-1.3-0.3c-0.2-0.3,0.3-0.2,0.5-0.2s1.3-0.1,1.6-0.2c0.3-0.1,0.6-0.2,0.6-0.4c0-0.3-0.5,0-0.8,0c-0.3,0.1-1,0.2-1,0.2
		c-0.6,0.1-0.3-0.3-0.3-0.3c0.1-0.3,1.2-0.5,1.6-0.5c0.5,0,0.4,0.2,0.7-0.1s0-0.3-0.3-0.4c-0.2,0-0.3,0.1-0.8,0.1s-0.1-0.2,0.3-0.5
		c0.3-0.2,1-0.4,2.1-0.3c1.1,0.2,2.3,1.8,2.7,2.1c0.4,0.4,0.4,0.2,0.4,0.2c0.2-0.1,0.4,0.7,0.4,0.7c-1.7-0.6-3.4-0.3-3.4-0.3
		c-1.6,0.1-2.2,1.2-2.2,1.2C45.4,64.8,48.3,63.9,48.3,63.9z M52.1,62.7c-0.3,0.2-0.4,0.2-0.8,0.1c-0.3-0.1-0.8,0.1-0.8,0.1
		c0.2-0.4,0.6-0.4,1.1-0.5s1.2-0.1,1.2-0.1C52.7,62.4,52.3,62.5,52.1,62.7z M55.9,63.1c-0.2,0-0.4-0.2-0.4-0.4s0.2-0.4,0.4-0.4
		s0.4,0.2,0.4,0.4S56.1,63.1,55.9,63.1z M60.5,62.8c-0.3,0.1-0.5,0-0.8-0.1s-0.6-0.3-0.7-0.3c0,0,0.7,0,1.2,0.1s0.9,0.2,1.1,0.5
		C61.3,63,60.9,62.7,60.5,62.8z M61.2,62.1c-0.6,0.3-2.4,0.2-3.6-0.6c0,0,0.2,0.4,0.4,0.5s0.9,0.3,0.9,0.6c0,0-0.1-0.1-0.6-0.2
		c-0.6,0-0.9-0.3-1.1-0.5c-0.2-0.2-0.4-0.5-0.4-0.6c0,0,0.1,0.3,0.1,0.5s0,0.3,0.2,0.5c0.3,0.2,0.7,0.5,0.7,0.9c0,0-0.1-0.4-0.4-0.5
		c-0.4-0.1-0.6-0.3-0.6-0.6s0-0.6-0.1-0.7c-0.1,0-0.1-0.1-0.1-0.1S56.5,62,56.3,62c0,0-0.2-0.5-0.3-0.6c0,0,0,0,0-0.1v0.1
		c-0.1,0.2-0.2,0.6-0.3,0.6c-0.2,0-0.3-0.7-0.3-0.7s0,0-0.1,0.1c-0.1,0-0.1,0.3-0.1,0.7c0,0.3-0.2,0.5-0.6,0.6
		c-0.4,0.2-0.5,0.6-0.5,0.6c-0.1-0.4,0.4-0.7,0.7-0.9s0.3-0.3,0.2-0.5c0-0.2,0.1-0.4,0.1-0.5c0,0.1-0.3,0.4-0.4,0.6
		c-0.2,0.2-0.5,0.5-1.1,0.5S53,62.7,53,62.7c0-0.4,0.7-0.5,0.9-0.6s0.4-0.5,0.4-0.5c-1.2,0.9-3,0.9-3.6,0.6
		c-0.6-0.3-1.9-0.1-1.9-0.1c0.2-0.2,0.9-0.4,1.7-0.4c0.6,0,1,0,1.1,0.1c1.1,0.3,2.4-0.4,2.5-0.5c-1.5,0.7-2.3,0.4-2.5,0.3
		c0,0-0.1-0.2-0.2-0.4c-0.1-0.2-0.3-0.4-0.3-0.4L51,60.5c-0.2-0.5,0-1.1,0.1-1.2c0.2-0.4,0.6-0.4,0.8-0.5c0.3-0.1,0.7-0.1,1.1,0
		c0.4,0.1,0.4,0.3,0.3,0.3c-0.1,0-0.1-0.1-0.4,0c-0.4,0.1-0.7-0.2-0.7-0.2c0,0.1,0.3,0.3,0.6,0.3c0.2,0,0.2,0.2,0.3,0.4
		c0.1,0.1-0.4,0-0.4,0c-0.5-0.1-0.6-0.6-0.6-0.6c-0.4-0.2-0.7,0.3-0.7,0.3c-0.2,0.5,0.1,1.2,0.1,1.2c0.4,1,0.8,0.9,0.8,0.9
		c-0.3-0.1-0.4-0.8-0.4-0.8c0-0.3,0.1-0.2,0.3-0.1c0.2,0.1,0.4,0.7,0.4,0.8c0.1,0.1,0.3,0.2,0.4,0.1c0.1,0-0.1-0.1-0.2-0.5
		c-0.1-0.4,0-0.3,0-0.6s0.2,0.1,0.4,0.3s0.2,0.6,0.5,0.8c0.3,0.1,0.4-0.3,0.4-0.3c-0.3-0.1-0.6-0.7-0.3-0.6c0.3,0.2,0.9,0.3,1.1,0.2
		c0.2-0.1,0.4-0.3,0.6-0.4c0.2-0.1,0.4-0.1,0.5,0c0,0,0,0,0.1,0c0,0,0,0,0.1,0s0.3-0.1,0.5,0s0.4,0.3,0.6,0.4
		c0.2,0.1,0.8-0.1,1.1-0.2c0.3-0.2,0,0.5-0.3,0.6c0,0,0.1,0.4,0.4,0.3c0.3-0.1,0.3-0.6,0.5-0.8s0.4-0.5,0.4-0.3c0,0.3,0.1,0.2,0,0.6
		c-0.1,0.4-0.3,0.5-0.2,0.5s0.3,0,0.4-0.1c0.1-0.1,0.2-0.6,0.4-0.8c0.2-0.1,0.3-0.2,0.3,0.1c0,0,0,0.7-0.4,0.8c0,0,0.4,0.1,0.8-0.9
		c0,0,0.3-0.7,0.1-1.2c0,0-0.3-0.5-0.7-0.3c0,0-0.1,0.5-0.6,0.6c0,0-0.5,0.1-0.4,0s0-0.4,0.3-0.4c0.2,0,0.5-0.2,0.6-0.3
		c0,0-0.4,0.3-0.7,0.2c-0.4-0.1-0.3,0-0.4,0c-0.1,0-0.1-0.2,0.3-0.3c0.4-0.1,0.9-0.1,1.1,0c0.2,0.1,0.6,0.2,0.8,0.5
		c0,0.1,0.3,0.7,0.1,1.2l-0.1,0.3c0,0-0.2,0.2-0.3,0.4s-0.2,0.4-0.2,0.4c-0.2,0.1-1,0.4-2.5-0.3c0.1,0.1,1.4,0.8,2.5,0.5
		c0.1,0,0.5-0.1,1.1-0.1c0.8,0,1.5,0.2,1.7,0.4C63,62,61.7,61.8,61.2,62.1z M73.4,64.1c0,0-1.8,0.6-4.7-0.6c0,0-0.9-0.5-1.2-0.7
		c0.1,0.1,1.2,1.2,2.5,1.4c0,0-0.3,0.3-0.7,0.2c0,0-0.7,0-1.2-0.5c-0.4-0.4-1.2-1.1-1.5-1.3c0.2,0.2,0.9,0.7,1.1,1.1
		c0,0,0.4,0.4,0.7,0.6c0,0-0.4,0.4-0.7,0.2c0,0-0.2-0.1-0.4-0.4c0,0-0.3-0.6-0.5-0.8c0,0,0.2,0.5,0.3,0.7c0.1,0.2,0.2,0.4,0.3,0.5
		c0,0-0.6,0.3-1.1-1.2c0,0,0.1,0.5,0.1,0.6s-0.5,1.1-2,0.7c0,0-0.6-0.3-0.9-0.6c0,0,3,0.9,2.4-1.5c0,0-0.6-1.1-2.2-1.2
		c0,0-1.8-0.2-3.4,0.3c0,0,0.2-0.8,0.4-0.7c0,0,0,0.2,0.4-0.2s1.6-2,2.7-2.1c1.1-0.2,1.8,0,2.1,0.3s0.8,0.5,0.3,0.5
		s-0.6-0.1-0.8-0.1s-0.5,0.1-0.3,0.4c0.3,0.3,0.3,0.1,0.7,0.1c0.5,0,1.5,0.2,1.6,0.5c0,0,0.3,0.3-0.3,0.3c0,0-0.7-0.1-1-0.2
		c-0.3-0.1-0.8-0.3-0.8,0c0,0.2,0.4,0.3,0.6,0.4c0.3,0.1,1.4,0.2,1.6,0.2s0.8-0.1,0.5,0.2c-0.2,0.3-0.8,0.3-1.3,0.3
		s-1.2-0.3-1.4-0.2c-0.2,0,0,0.3,0.6,0.5c0.6,0.2,1.7,0,2.1,0c0.3,0,0.8,0,0.8,0.1s-0.1,0.2-0.5,0.3c-0.3,0.1-0.9,0.1-1.1,0.1
		c-0.3,0-0.3,0.1-0.3,0.1c0.5,0.5,1.7-0.1,2.1-0.3c0.3-0.2,0.6,0,0.6,0c-0.5,0.9-1.8,0.8-1.8,0.8c0.9,0.5,1.8,0.1,2.1-0.2
		s0.6-0.4,0.6-0.4c0.5-0.2,0.3,0.3,0.3,0.3c-0.3,0.9-1.4,1.2-1.4,1.2c1.4,0,1.6-1.3,1.6-1.3c0.1-0.5,0.5-0.2,0.5-0.2
		C72,63,70.6,64,70.6,64S72,64.3,73.4,64.1z M75.3,53.6c0,0.4,0.2,1,0.4,1.4c0.1,0.4,0.2,0.3,0.5,1.7s-0.8,3.4-0.9,3.6
		c-0.1,0.2-0.2,0.4-0.4,0.8c-0.2,0.4-0.3,0.4-1,1.3c-0.8,0.8-1.3,0.7-1.4,0.8c-0.1,0.1-0.4,0.4-0.9,0.5c-0.4,0.1-0.7,0-0.7,0
		c1.1-0.2,1.1-1.4,1.1-1.4c0.1-0.6,0.5-0.4,0.6-0.4c0.3,0,0,1,0,1c0.4-0.3,0.4-1.3,0.4-1.3c0.1-0.5,0.5-0.3,0.5-0.3
		c0.3,0.1-0.1,1-0.1,1c0.3-0.3,0.4-1.3,0.4-1.3c0.2-1.5-0.8-2-0.8-2.1c-0.5-0.4-0.2-0.6-0.2-0.6c0.3-0.4,1,0.1,1,0.1
		c1,0.6,0.4,2.8,0.4,2.9c1-1.6,0.1-3.1,0.1-3.1c-1.1-1.6-1.9-0.4-1.9-0.4c-0.5,0.5-0.9,0.3-0.9,0.3c-0.3-0.1-0.1-0.7-0.1-0.7
		c0.2-0.6,0.7-0.6,0.7-0.6c-0.6-0.1-0.7,0.4-1,0.7c-0.2,0.4-0.4,0.3-0.4,0.3c-0.2,0-0.3-0.4-0.3-0.4c0-0.5,0.4-1.1,0.4-1.1
		c-0.7,0.4-0.8,1.5-0.8,2c0.1,0.5-0.2,0.7-0.2,0.7c-0.1-0.6-0.5-0.4-0.5-0.4c0.3,0.7-0.2,1.2-0.2,1.2c-0.6-0.5-0.4-1.8-0.3-2.1
		c-0.9,2.9,1.7,3.3,1.7,3.3c0.7,0.1,0.8-0.7,0.8-0.7c0.1-0.6,0.4-0.4,0.4-0.4c0.5,0.2,0,0.9,0,0.9c0.9-0.7,0-1.2,0-1.2
		c-0.5-0.2-0.7,0.7-0.7,0.7c-0.3,0-0.6-0.1-0.6-0.1c-0.6-0.3-0.2-1.1-0.2-1.1c0.5-1.2,2.2-0.3,2.2-0.3c0.9,0.5,0.5,1.6,0.5,1.6
		c-0.1,1-1.5,1.2-1.5,1.2c-1.2,0.1-2.4-0.7-2.4-0.7c-1.6-1.1-0.8-3.3-0.8-3.3c0.7-1.5,2.4-1.7,2.4-1.7c2.1-0.3,3.7,1.7,3.9,2.1
		c-1-1.8-2.9-2.2-2.9-2.2c-0.1-0.4-0.8-0.7-0.8-0.7C71,55,71.3,55,71.5,55c0.2,0.1,0.9,0.9,1.1,1c0.1,0.1,0.5,0.2,0.6,0.2
		c0,0-0.1-0.2-0.3-0.4c-0.1-0.2-0.3-0.3-0.5-0.4c-0.2-0.1-0.1-0.3-0.1-0.5c0-0.3,0.2-0.2,0.5,0c0.3,0.1,0.6,0.8,1,1.1
		c0.3,0.3,0.2-0.3,0.1-0.6c0.2-0.2,0.1-1.1,0.1-1.1c0.5,0.2,1.1,1,1.1,1C75.1,54.8,75.3,53.8,75.3,53.6z M76.5,49.9
		c-1.4-1.1-2,0.5-2,0.5c-0.3,0.5-0.7,0.9-0.7,0.9c0.3,0,0.8-0.7,0.8-0.7s0,0.1,0,0.6c0.1,0.5,0.1,0.9,0.2,1.4c0.1,0.5,0.2,0.8,0.3,1
		c0,0.3,0,0.7,0,0.8c0-0.1-0.2-0.4-0.2-0.4c-0.6-0.9-1-2.1-1-2.1c-0.1,0.6,0.9,2.2,1.1,2.5s0.1,0.6,0.1,0.6
		c-0.1-0.3-0.8-0.7-0.8-0.7c0.1-0.2,0-0.3-0.1-0.5c-0.1-0.2-0.2-0.4-0.3-0.6c-0.1-0.2-0.2-0.2-0.2,0.1s0.3,0.9,0.3,1.1
		c0,0.2-0.1,0.1-0.2-0.1c-0.2-0.2-0.2-0.4-0.3-0.6c-0.1-0.2-0.2-0.6-0.2-0.9c-0.1-0.3,0.1-0.8,0.2-1c0.1-0.3,0.1-0.6,0.3-0.9
		c0.1-0.2,0.3-0.8,0.3-0.8c0.2-0.4,0.5-0.8,0.5-0.8v0.3l0.3-0.2C75.7,48.6,76.6,49.9,76.5,49.9z M76.2,43c0.3,0.1-0.1,0.5-0.1,0.5
		c0.3,0,0.4,0.1,0.6,0.6c0.2,0.6-0.2,0.4-0.2,0.4c0.2-0.3-0.2-0.4-0.2-0.4C76,43.8,75.1,45,75.1,45c-0.8,1.1-0.8,3.9-0.8,3.9
		c0,0.1-0.2,0.4-0.2,0.4c-0.1-1.1-0.2-1.8-0.2-2.4c0.2-0.7,0.5-1.8,1.2-2.7c-0.1,0.1-0.8,0.9-1.2,2.3c0-0.5,0.1-0.9,0.1-1.3
		c0.3-0.6,0.7-1.4,1-1.8c-0.1,0.1-0.5,0.6-1,1.3c0.1-0.8,0.5-1.4,0.5-1.4c0.2-0.4,1.1-0.6,1.1-0.5c0.1,0.1-0.1,0.3-0.1,0.3
		C75.7,43.1,76.2,43,76.2,43z M74.3,31c0,0-0.2,1,0,1.7c0.2,0.6,0.2,1.8,0.2,2.1c0,0,0.4-1.2,1-1.2c0,0-0.7,1.3-0.5,2.1
		c0,0,0.7-0.7,1.1-0.4c0,0-0.6,0.3-0.4,1.2c0,0,0.3-0.4,0.5-0.3c0,0-0.3,0.5-0.2,0.8c0,0.3,0.6,1.6,0.1,3.2c0,0-0.3,0.8-0.7,1.3
		s-2.1,2.6-1.4,7.9c0,0-0.1,0.3-0.2,0.4c0,0-0.5-3,0-5.1c0,0,0.3-1.5,0.6-2.2c0,0,1.3-2.2,0.8-5c0,0-0.3-1-1-2.2
		c0.3-1.2-1.1-2.7-1.6-3.2c0,0-0.7-1.1-0.9-1.8c0,0-0.1,0.6,0.5,1.5c0.4,0.5,0.4,0.4,1.2,1.6c0.5,0.7,0.6,1.4,0.6,1.7
		c-0.3-0.4-0.6-0.9-1.1-1.3c0,0-1.8-2.1-1.8-3c0,0,0-1.1,0.2-1.7c0.1-0.6,0.2-0.8,0-1.1c0,0,0.4,0.2,0.6,0.9
		c0.2,0.8,0.5,1.1,0.7,1.3c0,0,0.1,0.8,0.4,1.4c0-0.1-0.4-1.2-0.3-1.6c0,0,0.5-1,0.9-1.1c0,0.1-0.3,0.8-0.3,1.4s0.1,1.4,0.2,1.7
		C73.6,31.9,73.8,31,74.3,31z M75.2,23.7c-0.9,0-1.3,0.5-1.3,0.5c0.3-0.2,0.8,0.1,0.8,0.1C74.8,24.6,74,25,74,25
		c-1.7,0.9-2,1.9-2,1.9c0.9-1.5,2.4-1.8,2.4-1.8c0,0.4-0.7,0.8-0.7,0.8c-0.9,0.4-1.5,1.3-1.6,1.5c1.3-1.7,2.2-1.1,2.2-1.1
		c-0.6,0-1.3,0.9-1.5,1.2c0.8-1,1.9-0.3,1.9-0.3c-1.9-0.3-2,2.7-2.1,2.6c-0.1-0.1-0.4-1-0.6-1.5s-0.5-0.4-0.5-0.5
		c0-0.5,0.4-1.4,0.4-1.4c0.1-0.4,1.4-1.9,1.4-1.9C74.3,23.3,75.2,23.7,75.2,23.7z M77.1,20.4c-0.3-0.6-0.9,0.5-1.3,1
		c-0.4,0.5-1.2,1.3-1.7,1.9s-1.8,1.9-2.1,2.5c-0.4,0.6-0.6,1.9-0.6,1.9v-6.4c0.1-0.6,1-0.9,1-1c0.8-0.4,1.1-0.8,1.2-1.5
		c0.1-0.7,0.6-1,0.7-1c-0.3,0.3-0.4,1-0.4,1c-0.2,1.4-0.8,2-0.8,2c-0.2,0.3-1,1.1-1.1,1.2c0.3-0.3,1-0.9,1.3-1.2
		c0.3-0.3,0.7-1.6,0.7-1.6c0.2-0.6,0.4-0.2,0.4-0.2c0.2,0.4-0.2,1.4-0.6,1.9c-0.4,0.4-1.5,1.8-1.5,1.8c0.4-0.4,1.6-1.6,1.6-1.6
		c0.7-0.6,1-2.3,1-2.6c0-0.4-0.2-0.4,0.2-0.7c0.4-0.2,0.4,0.6,0.4,0.6c-0.1,1.3-1.8,3.6-2.7,4.8c0.2-0.2,0.4-0.4,0.6-0.7
		c0.5-0.6,1.3-1.7,1.3-1.7c1.6-2.4,1.1-3.3,1.1-3.3c-0.4-1.3-2.2-0.5-2.2-0.5c-0.1-0.3,0.8-0.6,0.8-0.6c0.4-0.2,0.5-0.4,0.5-0.4
		c-0.1,0.1-1,0.5-1,0.5c-0.3,0.1-0.4-0.4-0.4-0.4c-0.1-0.9,1.2-0.9,1.2-0.9c1.7,0.2,1.7,2.7,1.7,2.8c0.1-0.3,0.5-0.7,0.6-0.8
		c-0.2,0.2-0.3,0.7-0.3,1.1c0-0.1,0-0.1,0-0.1s0,0.3,0,0.4l0,0l0,0c-0.1,0.9-0.6,1.3-0.6,1.3c-1.4,1.2-2.3,2.9-2.4,3.1
		c1.7-2.5,2.7-3.2,3.1-3.3C77.2,19.7,77.1,20.4,77.1,20.4z"/>
	<path class="st0" d="M46.5,33.4L46.5,33.4L46.5,33.4L46.5,33.4z"/>
	<path class="st0" d="M47.8,34.9C47.8,34.9,47.8,35,47.8,34.9c-0.1,0.1-0.1,0.2-0.2,0.2C47.8,35,47.8,35,47.8,34.9z"/>
	<path class="st0" d="M46.7,32L46.7,32C46.7,31.9,46.7,31.9,46.7,32c-0.1-0.1-0.1-0.1-0.1-0.1l0,0l0,0l0,0l0,0l0,0
		C46.6,31.9,46.6,31.9,46.7,32C46.6,31.9,46.6,31.9,46.7,32C46.7,31.9,46.7,32,46.7,32s0,0,0.1,0.1l0,0L46.7,32
		C46.8,32,46.8,32,46.7,32L46.7,32z"/>
	<path class="st0" d="M48.9,27.5c0,0.1-0.2,0.1-0.2,0.2s0.1,0.1,0.2,0.1c0.2,0,0.2-0.1,0.3,0s0.1,0.2,0.1,0.3c0,0.2,0,0.3,0,0.5
		c-0.1,0.2,0,0.4-0.1,0.6v0.1c0.1-0.2,0.1-0.3,0.3-0.5c0.1-0.1,0.2-0.1,0.3-0.2s0.2-0.3,0.3-0.4c0-0.1-0.1-0.4-0.2-0.5
		c-0.1-0.1-0.2-0.1-0.1-0.2c0-0.1,0.1-0.2,0.1-0.3v-0.1c0-0.1,0,0,0.1-0.1s0.2-0.2,0.1-0.3c-0.1,0.1-0.2,0.2-0.3,0.2
		s0.1-0.2-0.3-0.1l0,0c0,0,0.1-0.2,0.1-0.3c0-0.2-0.1-0.4-0.2-0.5c0,0.3,0.1,0.7-0.2,0.9c-0.2,0.2-0.7,0-0.9,0.2
		c0.1,0.1,0.5,0.2,0.6,0.2C48.9,27.3,48.9,27.4,48.9,27.5z"/>
	<path class="st0" d="M47.8,28.2L47.8,28.2c-0.1,0.1-0.1,0.2-0.1,0.3c0,0.1,0,0.3,0,0.4s-0.1,0.3-0.1,0.4c0,0.2,0,0.4,0.1,0.5
		c0-0.1,0.1-0.2,0.1-0.3c0-0.1,0.1-0.1,0.2-0.2c0.1-0.1,0-0.1,0-0.2s0-0.1,0-0.1l-0.1-0.1C47.8,28.7,47.7,28.4,47.8,28.2z"/>
	<path class="st0" d="M48.6,28.5c0-0.2,0.1-0.5-0.2-0.6c-0.1,0.2,0.1,0.5,0.1,0.7s0,0.5-0.1,0.7s-0.3,0.6,0,0.8
		c0.3-0.3,0.2-0.8,0.5-1l0,0C48.7,28.9,48.5,28.7,48.6,28.5z"/>
	<path class="st0" d="M46.7,30.6c-0.1,0-0.1,0-0.2,0l0,0C46.6,30.6,46.6,30.6,46.7,30.6c0,0.1,0.2,0.1,0.3,0.1c0,0,0,0,0.1,0h0.1
		v-0.1C47.2,30.7,47,30.6,46.7,30.6z"/>
	<path class="st0" d="M49.3,30.8L49.3,30.8C49.3,30.7,49.3,30.8,49.3,30.8L49.3,30.8L49.3,30.8z"/>
	<path class="st0" d="M47.2,31.9L47.2,31.9C47.1,31.9,47.1,31.9,47.2,31.9L47.2,31.9C47.1,31.9,47.1,31.9,47.2,31.9
		C47.1,31.9,47.1,31.9,47.2,31.9L47.2,31.9L47.1,32C47.1,32,47.2,32,47.2,31.9L47.2,31.9L47.2,31.9z"/>
	<path class="st0" d="M48.8,34.6C48.8,34.7,48.7,34.6,48.8,34.6C48.7,34.6,48.8,34.7,48.8,34.6z"/>
	<path class="st0" d="M49.2,31.6L49.2,31.6L49.2,31.6L49.2,31.6z"/>
	<path class="st0" d="M66.6,73.4c0-0.1,0-0.1-0.1-0.2l-0.3-1.4c0-0.1,0-0.1,0-0.2l0,0v-0.1l0.1-0.1l-0.5,0.1l0.1,0.1l0.1,0.1
		c0,0,0,0.1,0.1,0.2l0.2,1.1l-0.9-1.4l-0.3,0.1h0.1l0.1,0.1c0,0.1,0,0.1,0,0.2l0.3,1.4c0,0.1,0,0.1,0,0.2l0,0v0.1l-0.1,0.1l0.5-0.1
		l-0.1-0.1l-0.1-0.1c0,0,0-0.1,0-0.2l-0.3-1l0.9,1.4l0.3-0.1h-0.1C66.7,73.5,66.6,73.5,66.6,73.4z"/>
	<path class="st0" d="M65.4,73.5C65.4,73.5,65.3,73.5,65.4,73.5C65.3,73.5,65.3,73.6,65.4,73.5c0,0.1-0.1,0.1-0.1,0.1s0,0-0.1,0
		l-0.3,0.1l-0.1-0.8h0.3l0,0l0,0l0,0l0,0l0,0l0,0L65,72.5h0.1l0,0l0,0l0,0l-0.3,0.1L64.7,72h0.2H65c0,0,0,0,0.1,0c0,0,0.1,0,0.1,0.1
		h0.1l-0.1-0.3l-0.7,0.1l0,0L64,72v0.1c0,0,0,0,0,0.1c0,0,0,0,0,0.1v0.1l0,0v0.1l-0.1,1.4l-0.5-1.3l0,0v-0.1v-0.1l0,0c0,0,0,0,0-0.1
		l0,0l0,0v-0.1l-0.5,0.1H63l0.1,0.1c0,0.1,0.1,0.1,0.1,0.2l0,0l0,0l0.6,1.6H64l0.2-1.7l0,0l0,0c0-0.1,0-0.1,0-0.2v-0.1l0.1,0.1
		c0,0.1,0,0.1,0.1,0.2l0.2,1.4c0,0.1,0,0.1,0,0.2l0,0c0,0.1,0,0.1,0,0.1l-0.1,0.1l0.9-0.2L65.4,73.5L65.4,73.5z"/>
	<path class="st0" d="M62.6,73.2L62.6,73.2V73c0-0.2-0.1-0.4-0.2-0.6c-0.1-0.2-0.2-0.2-0.4-0.2l0,0c-0.2,0-0.3,0.1-0.4,0.3
		c-0.1,0.2-0.1,0.4-0.1,0.6l0,0l0,0v0.1v0.1v0.1v0.1c0,0.2,0.1,0.4,0.2,0.6c0.1,0.1,0.2,0.2,0.4,0.2l0,0c0.2,0,0.3-0.1,0.4-0.3
		c0.1-0.2,0.1-0.4,0.1-0.6l0,0C62.6,73.4,62.6,73.4,62.6,73.2L62.6,73.2z M62.3,73.5c0,0.1,0,0.3-0.1,0.4c0,0.1-0.1,0.2-0.2,0.2l0,0
		c-0.1,0-0.1,0-0.2-0.1c-0.1-0.1-0.1-0.2-0.2-0.4c0,0,0-0.1,0-0.2s0-0.1,0-0.1v-0.1V73c0-0.1,0-0.3,0.1-0.4c0-0.1,0.1-0.2,0.2-0.2
		l0,0c0.1,0,0.1,0,0.2,0.1c0.1,0.1,0.1,0.2,0.1,0.4c0,0,0,0.1,0,0.2s0,0.1,0,0.1l0,0v0.1v0.2H62.3z"/>
	<path class="st0" d="M68.6,72.8L68.6,72.8C68.5,72.8,68.5,72.8,68.6,72.8c-0.1,0.1-0.1,0.1-0.1,0.1s0,0,0,0.1c0,0,0,0-0.1,0
		l-0.3,0.1l-0.2-0.8l0.3-0.1l0,0l0,0c0,0,0,0,0.1,0l0,0l0,0h0.1l-0.1-0.4h-0.1l0,0c0,0,0,0,0,0.1c0,0,0,0-0.1,0L67.8,72l-0.2-0.6
		l0.2-0.1h0.1l0,0c0,0,0.1,0,0.1,0.1l0.1-0.1L68,71l-0.9,0.2l0,0l0,0l0,0l0,0l0,0l0,0l0,0l0,0l0,0H67l0,0h-0.1
		c-0.2,0-0.3,0.2-0.3,0.4c0,0.1,0,0.3,0,0.4s0,0.1,0,0.2v0.1v0.1c0,0.3,0.1,0.5,0.3,0.7c0.1,0.2,0.3,0.3,0.4,0.3h0.1l0,0l0,0
		c0,0,0,0,0.1,0l0,0l0,0l0,0l0.1,0.1v-0.1l0.9-0.2L68.6,72.8z M67.8,73.3L67.8,73.3L67.7,73h-0.1c0,0.1,0,0.1-0.1,0.2l-0.1,0.1h-0.1
		c-0.1,0-0.2-0.1-0.3-0.2c-0.1-0.1-0.2-0.3-0.2-0.5l0,0l0,0v-0.1v-0.1c0-0.1,0-0.1,0-0.2s0-0.2,0-0.3c0-0.1,0.1-0.2,0.2-0.2h0.1h0.1
		c0.1,0,0.1,0.1,0.1,0.1h0.1l-0.2-0.5l0,0l0.1,0.1c0,0.1,0,0.1,0,0.2l0.4,1.3c0,0.1,0,0.1,0,0.2l0,0C67.8,73.2,67.8,73.2,67.8,73.3z
		"/>
	<path class="st0" d="M45.3,71L45.3,71L45.3,71c0,0.2,0,0.2,0,0.3L45,72.7c0,0.1,0,0.1-0.1,0.2c0,0,0,0.1-0.1,0.1l-0.1,0.1l0.9,0.2
		l0.1-0.3h-0.1l0,0l0,0h-0.1l0,0c0,0,0,0-0.1,0l-0.3-0.1l0.2-0.8l0.3,0.1h0.1c0,0,0,0,0,0.1l0,0l0,0l0,0l0.1-0.4h-0.1l0,0l0,0
		c0,0,0,0-0.1,0l0,0l-0.3-0.1l0.1-0.6l0.2,0.1h0.1l0.1,0.1h0.3l0.1-0.3L45.3,71L45.3,71z"/>
	<path class="st0" d="M46.6,73C46.5,73,46.5,73.1,46.6,73c-0.1,0.1-0.1,0.1-0.2,0.1c0,0,0,0-0.1,0l-0.2,0l0.3-1.5c0-0.1,0-0.1,0-0.2
		l0.1-0.1l0.1-0.1l-0.5-0.1l0.1,0.1v0.1l0,0c0,0.1,0,0.1,0,0.2l-0.3,1.4c0,0.1,0,0.1,0,0.2l-0.1,0.1l-0.1,0.1l0.9,0.2L46.6,73
		L46.6,73L46.6,73L46.6,73z"/>
	<path class="st0" d="M51.8,73.6L51.8,73.6c0-0.2,0-0.3,0-0.4c0-0.1-0.1-0.1-0.1-0.2l0.1-0.1c0.1-0.1,0.1-0.2,0.1-0.3v-0.1
		c0-0.1,0-0.2-0.1-0.3c-0.1-0.1-0.2-0.1-0.3-0.1h-0.1h-0.1L50.9,72l0.1,0.1v0.1v0.2l-0.2,1.4c0,0.1,0,0.1,0,0.2s0,0.1-0.1,0.1l0,0
		l0,0L50.6,74c0-0.1,0-0.1,0-0.2l-0.1-1.6v-0.1l0,0c0,0,0,0,0-0.1l0,0l-0.4-0.1V72l0,0l0,0l0,0l0,0l0,0l-0.6,1.5
		c0,0.1-0.1,0.1-0.1,0.2c0,0,0,0.1-0.1,0.1c-0.1-0.1-0.1-0.1-0.1-0.2s0-0.2,0-0.3l0,0c0-0.1,0-0.2,0-0.3c0-0.1,0-0.2-0.1-0.2
		c0.1,0,0.1-0.1,0.2-0.1c0.1-0.1,0.1-0.2,0.1-0.3c0-0.1,0-0.1,0-0.2s0-0.2-0.1-0.3c-0.1-0.1-0.2-0.1-0.3-0.2l-0.5-0.1l-1-0.2
		l-0.1,0.4h0.1c0.1-0.1,0.1-0.1,0.2-0.1h0.2l0,0l-0.3,1.5c0,0.1,0,0.1,0,0.2c0,0,0,0.1-0.1,0.1l-0.1,0.1l0.5,0.1l-0.1-0.1v-0.1
		c0-0.1,0-0.1,0-0.2l0.3-1.5l0,0l0,0l0,0h0.1l0.1,0.1l0,0l0,0h0.1v-0.4l0,0v0.1l0,0c0,0.1,0,0.1,0,0.2l-0.2,1.4c0,0.1,0,0.1,0,0.2
		c0,0,0,0.1-0.1,0.1l0,0.2l0.5,0.1l-0.1-0.1v-0.1c0-0.1,0-0.1,0-0.2l0.1-0.7c0.1,0,0.1,0,0.2,0.1c0,0,0.1,0.1,0.1,0.2c0,0,0,0,0,0.1
		v0.1c0,0,0,0,0,0.1v0.1c0,0.1,0,0.1,0,0.2l0,0c0,0.1,0,0.1,0,0.1l0,0l0,0l-0.1,0.1l0.4,0.1l0,0h0.1l0,0h0.3l-0.1-0.1l0,0l0,0l0,0
		l0,0l0,0l0,0l0,0l0.1-0.4h0.5v0.5l0,0l0,0l0,0l0,0V74l0,0L50,74.1l0.5,0.1l0,0l0.4,0.1H51c0.1,0,0.2,0,0.3-0.1
		C51.7,74,51.8,73.8,51.8,73.6z M48.9,72.5L48.9,72.5C48.8,72.5,48.8,72.5,48.9,72.5L48.9,72.5L48.9,72.5L48.9,72.5v-0.6l0,0l0,0
		l0,0l0,0l0,0c0.1,0,0.1,0,0.2,0.1l0.1,0.1v0.2c0,0.1-0.1,0.2-0.1,0.2C49,72.5,49,72.5,48.9,72.5z M50,73.1l0.3-0.7l0.1,0.8L50,73.1
		z M51.6,73.6c0,0.2-0.1,0.3-0.2,0.3c-0.1,0-0.1,0-0.2,0c0,0,0,0-0.1,0l0,0H51l0.1-0.8h0.1l0,0l0,0c0.1,0,0.2,0,0.3,0.1
		c0,0,0.1,0.1,0.1,0.2C51.6,73.4,51.6,73.6,51.6,73.6z M51.5,72.8c0,0-0.1,0-0.2,0h-0.1l0,0l0,0l0.1-0.6l0,0l0,0l0,0l0,0l0,0
		c0.1,0,0.1,0,0.2,0.1c0,0,0.1,0.1,0.1,0.2v0.1C51.6,72.7,51.6,72.8,51.5,72.8z"/>
	<path class="st0" d="M59.9,73.2c0-0.2-0.1-0.4-0.2-0.6c-0.1-0.2-0.2-0.3-0.4-0.3l0,0c-0.2,0-0.3,0.1-0.4,0.3
		c-0.1,0.2-0.1,0.4-0.1,0.6v0.1l0,0v0.1v0.1v0.1c0,0.2,0.1,0.4,0.2,0.6c0.1,0.2,0.2,0.3,0.4,0.3l0,0c0.2,0,0.3-0.1,0.4-0.3
		c0.1-0.2,0.1-0.4,0.1-0.6v-0.1l0,0v-0.1V73.2L59.9,73.2z M59.7,73.6c0,0.1,0,0.1,0,0.2s0,0.3-0.1,0.4c0,0.1-0.1,0.2-0.2,0.2l0,0
		c-0.1,0-0.2-0.1-0.2-0.2c-0.1-0.1-0.1-0.2-0.1-0.4c0-0.1,0-0.1,0-0.2v-0.1v-0.1l0,0c0-0.1,0-0.1,0-0.2s0-0.3,0.1-0.4
		c0-0.1,0.1-0.2,0.2-0.2c0.1,0,0.2,0,0.2,0.1c0.1,0.1,0.1,0.2,0.1,0.4v0.1c0,0.1,0,0.1,0,0.2V73.6z"/>
	<path class="st0" d="M54.2,72.3L54.2,72.3c-0.2,0-0.3,0.1-0.4,0.3c-0.1,0.2-0.2,0.4-0.2,0.6v0.1v0.1v0.2c0,0.2,0,0.4,0.1,0.6
		s0.2,0.3,0.4,0.3l0,0c0.2,0,0.3-0.1,0.4-0.3c0.1-0.2,0.2-0.4,0.2-0.6v-0.1v-0.1v-0.2c0-0.2-0.1-0.4-0.1-0.6
		C54.5,72.4,54.4,72.3,54.2,72.3z M54.5,73.2c0,0.1,0,0.1,0,0.2l0,0v0.1c0,0,0,0.1,0,0.2s-0.1,0.3-0.1,0.4c-0.1,0.1-0.1,0.1-0.2,0.1
		l0,0c-0.1,0-0.2-0.1-0.2-0.2s-0.1-0.3-0.1-0.4v-0.3c0,0,0-0.1,0-0.2s0-0.1,0-0.2s0.1-0.3,0.1-0.4s0.1-0.2,0.2-0.2l0,0
		c0.1,0,0.1,0.1,0.2,0.2c0,0.1,0.1,0.2,0.1,0.4S54.5,73.2,54.5,73.2L54.5,73.2z"/>
	<path class="st0" d="M56.3,72.4h-1l-0.1,0.4h0.1c0-0.1,0.1-0.1,0.1-0.1s0.1,0,0.2,0l0,0v1.5c0,0.1,0,0.1,0,0.2s0,0.1-0.1,0.1
		l-0.1,0.1h0.5l-0.1-0.1c0,0,0-0.1-0.1-0.1v-0.2v-1.5l0,0l0,0l0,0h0.1c0,0,0.1,0,0.1,0.1l0,0l0,0H56L56.3,72.4z"/>
	<path class="st0" d="M58,72.4L58,72.4h-0.4v0.1l0,0c0,0,0,0.1,0.1,0.1c0,0.1,0,0.1,0,0.2v1.4l0,0c0,0,0,0.1,0,0.2
		c0,0,0,0.1-0.1,0.1l-0.1,0.1H58c0.2,0,0.4-0.1,0.5-0.3c0.1-0.2,0.2-0.4,0.2-0.7l0,0c0-0.3-0.1-0.6-0.2-0.8
		C58.4,72.5,58.2,72.4,58,72.4z M58.4,73.5c0,0.2,0,0.4-0.1,0.6c-0.1,0.1-0.2,0.2-0.3,0.2h-0.1v-1.7l0,0c0.1,0,0.1,0,0.2,0
		c0.1,0,0.1,0.1,0.2,0.2c0,0.1,0.1,0.1,0.1,0.2s0,0.2,0,0.3c0,0,0,0,0,0.1C58.4,73.4,58.4,73.5,58.4,73.5z"/>
	<path class="st0" d="M52.6,74.2C52.6,74.2,52.6,74.3,52.6,74.2L52.6,74.2l0.5,0.2L53,74.3l-0.1-0.1c0-0.1,0-0.1,0-0.2l-0.2-1.6
		v-0.1l0,0l0,0v-0.1h-0.4v0.1l0,0l0,0l0,0c0,0,0,0,0,0.1l0,0l-0.5,1.5c0,0-0.1,0.1-0.1,0.2l-0.1,0.1l-0.1,0.1H52v-0.1l0,0l0,0l0,0
		l0,0l0,0l0,0l0,0l0.1-0.4h0.4L52.6,74.2L52.6,74.2C52.7,74.2,52.7,74.2,52.6,74.2z M52.2,73.3l0.2-0.7l0.1,0.8L52.2,73.3z"/>
	<path class="st0" d="M61.4,74C61.4,74.1,61.3,74.1,61.4,74c-0.1,0.1-0.2,0.1-0.2,0.2H61l-0.1-1.5v-0.2c0-0.1,0-0.1,0.1-0.1l0.1-0.1
		h-0.5l0.1,0.1l0.1,0.1c0,0.1,0,0.1,0,0.2l0.1,1.4v0.1c0,0,0,0,0,0.1s0,0.1,0,0.1l-0.1,0.1l0.9-0.1L61.4,74L61.4,74L61.4,74z"/>
	<path class="st0" d="M53.6,72.2h-0.5l0.1,0.1v0.1v0.2l-0.1,1.7c0,0.1,0,0.2,0,0.2s0,0-0.1,0l0,0c0,0,0,0-0.1,0c0,0-0.1,0-0.1-0.1
		h-0.1l0.1,0.4l0,0l0,0l0,0l0,0c0,0,0,0,0.1,0l0,0l0,0c0.1,0,0.1-0.1,0.2-0.1c0-0.1,0.1-0.2,0.1-0.4l0.1-1.7c0-0.1,0-0.1,0-0.2
		C53.5,72.4,53.5,72.3,53.6,72.2L53.6,72.2z"/>
	<path class="st0" d="M57.3,72.7c-0.1-0.2-0.2-0.3-0.4-0.3s-0.3,0.1-0.4,0.3c-0.1,0.2-0.1,0.4-0.2,0.6v0.1v0.2v0.1
		c0,0.2,0.1,0.4,0.1,0.6c0.1,0.2,0.2,0.3,0.4,0.3l0,0c0.2,0,0.3-0.1,0.4-0.3c0.1-0.2,0.1-0.4,0.2-0.6v-0.1v-0.2v-0.1
		C57.4,73,57.4,72.8,57.3,72.7z M57.2,73.6c0,0.1,0,0.1,0,0.2s-0.1,0.3-0.1,0.4c-0.1,0.1-0.1,0.1-0.2,0.1c-0.1,0-0.2,0-0.2-0.2
		c-0.1-0.1-0.1-0.3-0.1-0.4v-0.1v-0.3c0-0.1,0-0.1,0-0.2s0-0.3,0.1-0.4s0.1-0.2,0.2-0.2c0.1,0,0.2,0.1,0.2,0.2
		c0.1,0.1,0.1,0.3,0.1,0.4s0,0.1,0,0.2V73.6z"/>
</g>
</svg>
